<?xml version="1.0" encoding="UTF-8" standalone="no"?>
<!-- Uploaded to: SVG Repo, www.svgrepo.com, Generator: SVG Repo Mixer Tools -->

<svg
   version="1.1"
   id="Layer_1"
   viewBox="0 0 512 512"
   xml:space="preserve"
   sodipodi:docname="syllablaze.svg"
   inkscape:version="1.4.3 (0d15f75042, 2025-12-25)"
   xmlns:inkscape="http://www.inkscape.org/namespaces/inkscape"
   xmlns:sodipodi="http://sodipodi.sourceforge.net/DTD/sodipodi-0.dtd"
   xmlns:xlink="http://www.w3.org/1999/xlink"
   xmlns="http://www.w3.org/2000/svg"
   xmlns:svg="http://www.w3.org/2000/svg"><defs
   id="defs32"><linearGradient
     id="linearGradient45"
     inkscape:collect="always"><stop
       style="stop-color:#a0a0ff;stop-opacity:1;"
       offset="0"
       id="stop44" /><stop
       style="stop-color:#6464ff;stop-opacity:1;"
       offset="1"
       id="stop45" /></linearGradient><linearGradient
     id="linearGradient39"
     inkscape:collect="always"><stop
       style="stop-color:#cccccc;stop-opacity:1;"
       offset="0"
       id="stop40" /><stop
       style="stop-color:#939393;stop-opacity:1;"
       offset="1"
       id="stop41" /></linearGradient><linearGradient
     inkscape:collect="always"
     xlink:href="#linearGradient39"
     id="linearGradient1"
     gradientUnits="userSpaceOnUse"
     x1="119.83018"
     y1="119.83015"
     x2="392.16989"
     y2="392.16986"
     gradientTransform="matrix(0.77080899,0,0,0.77080899,58.6729,58.672899)" /><linearGradient
     inkscape:collect="always"
     xlink:href="#linearGradient39"
     id="linearGradient2"
     gradientUnits="userSpaceOnUse"
     x1="119.83018"
     y1="119.83015"
     x2="392.16989"
     y2="392.16986"
     gradientTransform="matrix(0.67282599,0,0,0.67282599,83.75722,83.756546)" /><linearGradient
     inkscape:collect="always"
     xlink:href="#linearGradient39"
     id="linearGradient3"
     gradientUnits="userSpaceOnUse"
     x1="119.83018"
     y1="119.83015"
     x2="392.16989"
     y2="392.16986" /><linearGradient
     inkscape:collect="always"
     xlink:href="#linearGradient39"
     id="linearGradient4"
     gradientUnits="userSpaceOnUse"
     x1="119.83018"
     y1="119.83015"
     x2="392.16989"
     y2="392.16986" /><linearGradient
     inkscape:collect="always"
     xlink:href="#linearGradient39"
     id="linearGradient5"
     gradientUnits="userSpaceOnUse"
     x1="119.83018"
     y1="119.83015"
     x2="392.16989"
     y2="392.16986" /><linearGradient
     inkscape:collect="always"
     xlink:href="#linearGradient39"
     id="linearGradient6"
     gradientUnits="userSpaceOnUse"
     x1="119.83018"
     y1="119.83015"
     x2="392.16989"
     y2="392.16986" /><linearGradient
     inkscape:collect="always"
     xlink:href="#linearGradient39"
     id="linearGradient7"
     gradientUnits="userSpaceOnUse"
     x1="119.83018"
     y1="119.83015"
     x2="392.16989"
     y2="392.16986" /><linearGradient
     inkscape:collect="always"
     xlink:href="#linearGradient39"
     id="linearGradient8"
     gradientUnits="userSpaceOnUse"
     x1="119.83018"
     y1="119.83015"
     x2="392.16989"
     y2="392.16986" /><linearGradient
     inkscape:collect="always"
     xlink:href="#linearGradient39"
     id="linearGradient9"
     gradientUnits="userSpaceOnUse"
     x1="119.83018"
     y1="119.83015"
     x2="392.16989"
     y2="392.16986" /><linearGradient
     inkscape:collect="always"
     xlink:href="#linearGradient39"
     id="linearGradient10"
     gradientUnits="userSpaceOnUse"
     x1="119.83018"
     y1="119.83015"
     x2="392.16989"
     y2="392.16986"
     gradientTransform="matrix(0.67282599,0,0,0.67282599,83.75722,83.756546)" /><linearGradient
     inkscape:collect="always"
     xlink:href="#linearGradient39"
     id="linearGradient11"
     gradientUnits="userSpaceOnUse"
     x1="119.83018"
     y1="119.83015"
     x2="392.16989"
     y2="392.16986" /><linearGradient
     inkscape:collect="always"
     xlink:href="#linearGradient39"
     id="linearGradient12"
     gradientUnits="userSpaceOnUse"
     x1="119.83018"
     y1="119.83015"
     x2="392.16989"
     y2="392.16986" /><linearGradient
     inkscape:collect="always"
     xlink:href="#linearGradient39"
     id="linearGradient13"
     gradientUnits="userSpaceOnUse"
     x1="119.83018"
     y1="119.83015"
     x2="392.16989"
     y2="392.16986" /><linearGradient
     inkscape:collect="always"
     xlink:href="#linearGradient39"
     id="linearGradient14"
     gradientUnits="userSpaceOnUse"
     x1="119.83018"
     y1="119.83015"
     x2="392.16989"
     y2="392.16986" /><linearGradient
     inkscape:collect="always"
     xlink:href="#linearGradient39"
     id="linearGradient15"
     gradientUnits="userSpaceOnUse"
     x1="119.83018"
     y1="119.83015"
     x2="392.16989"
     y2="392.16986" /><linearGradient
     inkscape:collect="always"
     xlink:href="#linearGradient39"
     id="linearGradient16"
     gradientUnits="userSpaceOnUse"
     x1="119.83018"
     y1="119.83015"
     x2="392.16989"
     y2="392.16986" /><linearGradient
     inkscape:collect="always"
     xlink:href="#linearGradient39"
     id="linearGradient17"
     gradientUnits="userSpaceOnUse"
     x1="119.83018"
     y1="119.83015"
     x2="392.16989"
     y2="392.16986" /><linearGradient
     inkscape:collect="always"
     xlink:href="#linearGradient39"
     id="linearGradient18"
     gradientUnits="userSpaceOnUse"
     x1="119.83018"
     y1="119.83015"
     x2="392.16989"
     y2="392.16986" /><linearGradient
     inkscape:collect="always"
     xlink:href="#linearGradient39"
     id="linearGradient19"
     gradientUnits="userSpaceOnUse"
     x1="119.83018"
     y1="119.83015"
     x2="392.16989"
     y2="392.16986" /><linearGradient
     inkscape:collect="always"
     xlink:href="#linearGradient39"
     id="linearGradient20"
     gradientUnits="userSpaceOnUse"
     x1="119.83018"
     y1="119.83015"
     x2="392.16989"
     y2="392.16986" /><linearGradient
     inkscape:collect="always"
     xlink:href="#linearGradient39"
     id="linearGradient21"
     gradientUnits="userSpaceOnUse"
     x1="119.83018"
     y1="119.83015"
     x2="392.16989"
     y2="392.16986" /><linearGradient
     inkscape:collect="always"
     xlink:href="#linearGradient39"
     id="linearGradient22"
     gradientUnits="userSpaceOnUse"
     x1="119.83018"
     y1="119.83015"
     x2="392.16989"
     y2="392.16986" /><linearGradient
     inkscape:collect="always"
     xlink:href="#linearGradient39"
     id="linearGradient23"
     gradientUnits="userSpaceOnUse"
     x1="119.83018"
     y1="119.83015"
     x2="392.16989"
     y2="392.16986" /><linearGradient
     inkscape:collect="always"
     xlink:href="#linearGradient39"
     id="linearGradient24"
     gradientUnits="userSpaceOnUse"
     x1="119.83018"
     y1="119.83015"
     x2="392.16989"
     y2="392.16986" /><linearGradient
     inkscape:collect="always"
     xlink:href="#linearGradient39"
     id="linearGradient25"
     gradientUnits="userSpaceOnUse"
     x1="119.83018"
     y1="119.83015"
     x2="392.16989"
     y2="392.16986" /><linearGradient
     inkscape:collect="always"
     xlink:href="#linearGradient39"
     id="linearGradient26"
     gradientUnits="userSpaceOnUse"
     x1="119.83018"
     y1="119.83015"
     x2="392.16989"
     y2="392.16986" /><linearGradient
     inkscape:collect="always"
     xlink:href="#linearGradient39"
     id="linearGradient27"
     gradientUnits="userSpaceOnUse"
     x1="119.83018"
     y1="119.83015"
     x2="392.16989"
     y2="392.16986" /><linearGradient
     inkscape:collect="always"
     xlink:href="#linearGradient39"
     id="linearGradient28"
     gradientUnits="userSpaceOnUse"
     x1="119.83018"
     y1="119.83015"
     x2="392.16989"
     y2="392.16986" /><linearGradient
     inkscape:collect="always"
     xlink:href="#linearGradient39"
     id="linearGradient29"
     gradientUnits="userSpaceOnUse"
     x1="119.83018"
     y1="119.83015"
     x2="392.16989"
     y2="392.16986" /><linearGradient
     inkscape:collect="always"
     xlink:href="#linearGradient39"
     id="linearGradient30"
     gradientUnits="userSpaceOnUse"
     x1="119.83018"
     y1="119.83015"
     x2="392.16989"
     y2="392.16986" /><linearGradient
     inkscape:collect="always"
     xlink:href="#linearGradient39"
     id="linearGradient31"
     gradientUnits="userSpaceOnUse"
     x1="119.83018"
     y1="119.83015"
     x2="392.16989"
     y2="392.16986" /><linearGradient
     inkscape:collect="always"
     xlink:href="#linearGradient39"
     id="linearGradient32"
     gradientUnits="userSpaceOnUse"
     x1="119.83018"
     y1="119.83015"
     x2="392.16989"
     y2="392.16986" /><linearGradient
     inkscape:collect="always"
     xlink:href="#linearGradient39"
     id="linearGradient33"
     gradientUnits="userSpaceOnUse"
     x1="119.83018"
     y1="119.83015"
     x2="392.16989"
     y2="392.16986" /><linearGradient
     inkscape:collect="always"
     xlink:href="#linearGradient39"
     id="linearGradient34"
     gradientUnits="userSpaceOnUse"
     x1="119.83018"
     y1="119.83015"
     x2="392.16989"
     y2="392.16986" /><linearGradient
     inkscape:collect="always"
     xlink:href="#linearGradient39"
     id="linearGradient35"
     gradientUnits="userSpaceOnUse"
     x1="119.83018"
     y1="119.83015"
     x2="392.16989"
     y2="392.16986" /><linearGradient
     inkscape:collect="always"
     xlink:href="#linearGradient39"
     id="linearGradient36"
     gradientUnits="userSpaceOnUse"
     x1="119.83018"
     y1="119.83015"
     x2="392.16989"
     y2="392.16986" /><linearGradient
     inkscape:collect="always"
     xlink:href="#linearGradient39"
     id="linearGradient37"
     gradientUnits="userSpaceOnUse"
     x1="119.83018"
     y1="119.83015"
     x2="392.16989"
     y2="392.16986" /><linearGradient
     inkscape:collect="always"
     xlink:href="#linearGradient39"
     id="linearGradient38"
     gradientUnits="userSpaceOnUse"
     x1="119.83018"
     y1="119.83015"
     x2="392.16989"
     y2="392.16986" /><linearGradient
     inkscape:collect="always"
     xlink:href="#linearGradient39"
     id="linearGradient40"
     gradientUnits="userSpaceOnUse"
     x1="119.83018"
     y1="119.83015"
     x2="392.16989"
     y2="392.16986" /><linearGradient
     inkscape:collect="always"
     xlink:href="#linearGradient45"
     id="linearGradient52"
     x1="189.20285"
     y1="156.57426"
     x2="357.63864"
     y2="399.61493"
     gradientUnits="userSpaceOnUse" /></defs><sodipodi:namedview
   id="namedview32"
   pagecolor="#ffffff"
   bordercolor="#111111"
   borderopacity="1"
   inkscape:showpageshadow="0"
   inkscape:pageopacity="0"
   inkscape:pagecheckerboard="1"
   inkscape:deskcolor="#d1d1d1"
   inkscape:zoom="2.3535156"
   inkscape:cx="281.06888"
   inkscape:cy="239.85394"
   inkscape:window-width="2560"
   inkscape:window-height="1408"
   inkscape:window-x="0"
   inkscape:window-y="0"
   inkscape:window-maximized="1"
   inkscape:current-layer="Layer_1" />






<path
   style="fill:url(#linearGradient52);stroke:none;stroke-width:15.4162;stroke-dasharray:none"
   d="m 396.7096,246.24669 c 0.026,6.51292 0.026,13.02584 0,19.53983 -0.039,6.14865 -0.118,12.29623 -0.22409,18.44488 -0.118,6.51291 -0.27605,13.02583 -0.46118,19.53982 -0.18403,6.14865 -0.40813,12.31015 -0.67119,18.45773 -0.26307,6.51292 -0.56619,13.02583 -0.92127,19.53982 -0.32911,6.14865 -0.69718,12.31015 -1.10531,18.47166 -0.42112,6.51292 -0.8823,13.02584 -1.39543,19.5259 -0.81627,10.57773 -1.73754,21.16725 -2.76382,31.74498 -1.57947,16.3739 -13.95219,29.79079 -30.31312,32.68244 -14.04422,2.48775 -28.08845,4.46765 -42.13266,5.92687 -14.53139,1.52458 -29.07575,2.50061 -43.60713,2.91737 -11.41141,0.33856 -22.82389,0.33856 -34.2223,0 -14.53138,-0.41676 -29.07575,-1.39386 -43.60713,-2.91737 -14.04421,-1.45922 -28.08844,-3.43912 -42.13266,-5.92687 -16.36093,-2.89165 -28.73365,-16.30854 -30.32611,-32.68244 -1.02628,-10.59059 -1.94755,-21.16725 -2.76381,-31.74498 -0.50015,-6.51292 -0.96133,-13.02584 -1.38245,-19.5259 -0.40813,-6.16151 -0.7762,-12.32301 -1.10531,-18.47166 -0.35508,-6.51292 -0.6582,-13.03976 -0.92127,-19.53982 -0.26306,-6.14865 -0.48715,-12.31015 -0.67119,-18.45773 -0.18404,-6.51292 -0.3421,-13.02584 -0.46118,-19.53982 -0.10501,-6.14865 -0.18404,-12.29623 -0.22409,-18.44488 -0.013,-3.257 -0.026,-6.51292 -0.026,-9.76991 0,-3.257 0.013,-6.51292 0.026,-9.76992 0.039,-6.14864 0.118,-12.31015 0.22409,-18.45773 0.118,-6.51291 0.26307,-13.02583 0.46118,-19.53982 0.18404,-6.14864 0.40813,-12.31015 0.67119,-18.45773 0.25008,-6.51293 0.56619,-13.02585 0.90828,-19.53983 0.3291,-6.14865 0.69718,-12.31015 1.10531,-18.45773 0.42112,-6.51291 0.8823,-13.01298 1.39544,-19.5259 0.80326,-10.59058 1.73753,-21.16725 2.76381,-31.75783 1.59246,-16.386758 13.96518,-29.803647 30.32611,-32.695301 2.71185,-0.482121 5.40962,-0.937457 8.12146,-1.381008 3.93516,-0.638543 7.8714,-1.250301 11.80655,-1.810633 2.61982,-0.378197 5.23857,-0.729609 7.87138,-1.055309 7.58126,-0.989954 15.16252,-1.823488 22.74486,-2.5006 3.62013,-0.325699 7.22618,-0.611758 10.84523,-0.873174 2.96191,-0.20892 5.90976,-0.403911 8.87168,-0.560332 7.56827,-0.429623 15.14953,-0.716753 22.71779,-0.833534 3.29211,-0.06643 6.58205,-0.09214 9.87307,-0.09214 3.29103,0 6.58096,0.02571 9.87199,0.09107 7.56826,0.11678 15.14952,0.40391 22.71779,0.833534 2.96192,0.156421 5.90977,0.351412 8.87169,0.560331 3.62012,0.260345 7.22617,0.547475 10.84522,0.873175 7.58126,0.677112 15.16252,1.510645 22.74486,2.5006 2.63281,0.3257 5.25156,0.677112 7.87138,1.055309 3.93516,0.560332 7.8714,1.17209 11.80655,1.810632 2.71184,0.44248 5.40961,0.898888 8.12146,1.381009 16.36092,2.891654 28.73366,16.308543 30.31313,32.695291 1.02628,10.59059 1.94755,21.16725 2.76381,31.75784 0.51314,6.51292 0.97431,13.02583 1.39544,19.5259 0.40813,6.1615 0.7762,12.31015 1.1053,18.45773 0.35509,6.51291 0.65821,13.02583 0.92127,19.53983 0.26307,6.14865 0.48716,12.29623 0.6712,18.45773 0.19702,6.51292 0.34209,13.02584 0.46117,19.53982 0.10393,6.14865 0.18296,12.31016 0.22301,18.4588 z"
   id="path33" /><path
   style="fill:none;stroke:url(#linearGradient1);stroke-width:15.4162;stroke-dasharray:none"
   d="m 396.7096,246.24669 c 0.026,6.51292 0.026,13.02584 0,19.53983 -0.039,6.14865 -0.118,12.29623 -0.22409,18.44488 -0.118,6.51291 -0.27605,13.02583 -0.46118,19.53982 -0.18403,6.14865 -0.40813,12.31015 -0.67119,18.45773 -0.26307,6.51292 -0.56619,13.02583 -0.92127,19.53982 -0.32911,6.14865 -0.69718,12.31015 -1.10531,18.47166 -0.42112,6.51292 -0.8823,13.02584 -1.39543,19.5259 -0.81627,10.57773 -1.73754,21.16725 -2.76382,31.74498 -1.57947,16.3739 -13.95219,29.79079 -30.31312,32.68244 -14.04422,2.48775 -28.08845,4.46765 -42.13266,5.92687 -14.53139,1.52458 -29.07575,2.50061 -43.60713,2.91737 -11.41141,0.33856 -22.82389,0.33856 -34.2223,0 -14.53138,-0.41676 -29.07575,-1.39386 -43.60713,-2.91737 -14.04421,-1.45922 -28.08844,-3.43912 -42.13266,-5.92687 -16.36093,-2.89165 -28.73365,-16.30854 -30.32611,-32.68244 -1.02628,-10.59059 -1.94755,-21.16725 -2.76381,-31.74498 -0.50015,-6.51292 -0.96133,-13.02584 -1.38245,-19.5259 -0.40813,-6.16151 -0.7762,-12.32301 -1.10531,-18.47166 -0.35508,-6.51292 -0.6582,-13.03976 -0.92127,-19.53982 -0.26306,-6.14865 -0.48715,-12.31015 -0.67119,-18.45773 -0.18404,-6.51292 -0.3421,-13.02584 -0.46118,-19.53982 -0.10501,-6.14865 -0.18404,-12.29623 -0.22409,-18.44488 -0.013,-3.257 -0.026,-6.51292 -0.026,-9.76991 0,-3.257 0.013,-6.51292 0.026,-9.76992 0.039,-6.14864 0.118,-12.31015 0.22409,-18.45773 0.118,-6.51291 0.26307,-13.02583 0.46118,-19.53982 0.18404,-6.14864 0.40813,-12.31015 0.67119,-18.45773 0.25008,-6.51293 0.56619,-13.02585 0.90828,-19.53983 0.3291,-6.14865 0.69718,-12.31015 1.10531,-18.45773 0.42112,-6.51291 0.8823,-13.01298 1.39544,-19.5259 0.80326,-10.59058 1.73753,-21.16725 2.76381,-31.75783 1.59246,-16.386758 13.96518,-29.803647 30.32611,-32.695301 2.71185,-0.482121 5.40962,-0.937457 8.12146,-1.381008 3.93516,-0.638543 7.8714,-1.250301 11.80655,-1.810633 2.61982,-0.378197 5.23857,-0.729609 7.87138,-1.055309 7.58126,-0.989954 15.16252,-1.823488 22.74486,-2.5006 3.62013,-0.325699 7.22618,-0.611758 10.84523,-0.873174 2.96191,-0.20892 5.90976,-0.403911 8.87168,-0.560332 7.56827,-0.429623 15.14953,-0.716753 22.71779,-0.833534 3.29211,-0.06643 6.58205,-0.09214 9.87307,-0.09214 3.29103,0 6.58096,0.02571 9.87199,0.09107 7.56826,0.11678 15.14952,0.40391 22.71779,0.833534 2.96192,0.156421 5.90977,0.351412 8.87169,0.560331 3.62012,0.260345 7.22617,0.547475 10.84522,0.873175 7.58126,0.677112 15.16252,1.510645 22.74486,2.5006 2.63281,0.3257 5.25156,0.677112 7.87138,1.055309 3.93516,0.560332 7.8714,1.17209 11.80655,1.810632 2.71184,0.44248 5.40961,0.898888 8.12146,1.381009 16.36092,2.891654 28.73366,16.308543 30.31313,32.695291 1.02628,10.59059 1.94755,21.16725 2.76381,31.75784 0.51314,6.51292 0.97431,13.02583 1.39544,19.5259 0.40813,6.1615 0.7762,12.31015 1.1053,18.45773 0.35509,6.51291 0.65821,13.02583 0.92127,19.53983 0.26307,6.14865 0.48716,12.29623 0.6712,18.45773 0.19702,6.51292 0.34209,13.02584 0.46117,19.53982 0.10393,6.14865 0.18296,12.31016 0.22301,18.4588 z"
   id="path32" /><rect
   x="238.00797"
   y="320.4332"
   style="fill:#666666;stroke:url(#linearGradient2);stroke-width:0.672826"
   width="40.902439"
   height="97.756241"
   id="rect1" /><g
   id="g2"
   style="stroke:url(#linearGradient5)"
   transform="matrix(0.67282599,0,0,0.67282599,83.75722,83.756546)">
	<path
   style="fill:#f2f2f2;stroke:url(#linearGradient3)"
   d="m 240.197,361.978 v 105.036 h -55.223 l 9.8,-70.64 5.143,-37.107 v -0.012 c 13.422,1.422 26.857,2.334 40.28,2.723 z"
   id="path1" />
	<path
   style="fill:#f2f2f2;stroke:url(#linearGradient4)"
   d="M 327.02,467.014 H 271.809 V 361.978 c 13.423,-0.389 26.858,-1.301 40.281,-2.723 v 0.012 l 5.143,37.107 z"
   id="path2" />
</g><polygon
   style="fill:#cccccc;stroke:url(#linearGradient6)"
   points="154.25,467.014 184.974,467.014 240.197,467.014 271.809,467.014 327.02,467.014 357.756,467.014 365.428,512 146.578,512 "
   id="polygon2"
   transform="matrix(0.67282599,0,0,0.67282599,83.75722,83.756546)" /><g
   id="g3"
   style="stroke:url(#linearGradient9)"
   transform="matrix(0.67282599,0,0,0.67282599,83.75722,83.756546)">
	<polygon
   style="opacity:0.25;fill:#4d4d4d;stroke:url(#linearGradient7);enable-background:new"
   points="365.428,512 357.756,467.014 327.02,467.014 304.26,467.014 311.931,512 "
   id="polygon3" />
	<path
   style="opacity:0.25;fill:#4d4d4d;stroke:url(#linearGradient8);enable-background:new"
   d="m 312.09,359.267 v -0.012 c -13.423,1.423 -26.858,2.334 -40.281,2.723 v 0 c -10.541,0.316 -21.083,0.316 -31.612,0 v 0 c -13.423,-0.389 -26.858,-1.301 -40.281,-2.723 v 0.012 l -5.143,37.107 c 1.714,0.207 3.429,0.389 5.143,0.571 13.423,1.423 26.858,2.334 40.281,2.723 v 67.345 h 31.612 v -67.345 c 13.423,-0.389 26.858,-1.301 40.281,-2.723 1.714,-0.182 3.429,-0.365 5.143,-0.571 z"
   id="path3" />
</g><path
   style="fill:#cccccc;stroke:url(#linearGradient10);stroke-width:0.672826"
   d="m 343.4519,201.5307 c 0.0161,4.09011 0.0161,8.18022 0,12.271 -0.0242,3.86135 -0.0733,7.72202 -0.13927,11.58337 -0.0733,4.09011 -0.17157,8.18022 -0.28662,12.271 -0.11438,3.86135 -0.25366,7.73077 -0.41716,11.59145 -0.16349,4.09011 -0.35188,8.18022 -0.57257,12.271 -0.20454,3.86135 -0.4333,7.73077 -0.68696,11.60019 -0.26173,4.09011 -0.54835,8.18022 -0.86727,12.26225 -0.50731,6.64282 -1.07989,13.29303 -1.71772,19.93584 -0.98166,10.2828 -8.67139,18.7086 -18.8398,20.52456 -8.72858,1.5623 -17.45715,2.80568 -26.18572,3.72207 -9.03134,0.95743 -18.07076,1.57037 -27.1021,1.8321 -7.09226,0.21262 -14.18519,0.21262 -21.26938,0 -9.03134,-0.26173 -18.07076,-0.87534 -27.1021,-1.8321 -8.72857,-0.91639 -17.45715,-2.15977 -26.18572,-3.72207 -10.16842,-1.81596 -17.85814,-10.24176 -18.84787,-20.52456 -0.63784,-6.65089 -1.21042,-13.29302 -1.71773,-19.93584 -0.31084,-4.0901 -0.59747,-8.18021 -0.85919,-12.26225 -0.25366,-3.86942 -0.48242,-7.73884 -0.68696,-11.60019 -0.22069,-4.09011 -0.40908,-8.18897 -0.57258,-12.271 -0.16349,-3.86135 -0.30277,-7.73077 -0.41715,-11.59145 -0.11438,-4.09011 -0.21261,-8.18022 -0.28662,-12.271 -0.0653,-3.86135 -0.11438,-7.72202 -0.13928,-11.58337 -0.008,-2.04539 -0.0161,-4.09011 -0.0161,-6.1355 0,-2.04539 0.008,-4.09011 0.0161,-6.1355 0.0242,-3.86135 0.0733,-7.73077 0.13928,-11.59145 0.0733,-4.09011 0.1635,-8.18022 0.28662,-12.271 0.11438,-3.86135 0.25366,-7.73077 0.41715,-11.59144 0.15543,-4.09011 0.35189,-8.18022 0.56451,-12.271 0.20453,-3.86135 0.4333,-7.73078 0.68695,-11.59145 0.26173,-4.09011 0.54835,-8.17215 0.86727,-12.26225 0.49924,-6.65089 1.07989,-13.29303 1.71773,-19.94391 0.98973,-10.290876 8.67945,-18.716676 18.84787,-20.532633 1.68543,-0.302772 3.36211,-0.588723 5.04754,-0.867273 2.44573,-0.401004 4.89212,-0.785188 7.33784,-1.137076 1.62824,-0.237507 3.25581,-0.458194 4.89212,-0.662733 4.7118,-0.621692 9.4236,-1.14515 14.13608,-1.570376 2.24993,-0.204539 4.49111,-0.384184 6.74037,-0.548353 1.84085,-0.131201 3.67295,-0.253656 5.51381,-0.351888 4.70372,-0.269804 9.41552,-0.450121 14.11925,-0.523459 2.04606,-0.04171 4.09078,-0.05786 6.13617,-0.05786 2.04539,0 4.09011,0.01615 6.1355,0.05719 4.70373,0.07334 9.41553,0.253656 14.11926,0.523459 1.84085,0.09823 3.67295,0.220687 5.5138,0.351888 2.24993,0.163497 4.49112,0.343814 6.74038,0.548353 4.7118,0.425226 9.4236,0.948685 14.13607,1.570376 1.63631,0.204539 3.26388,0.425226 4.89212,0.662733 2.44572,0.351888 4.89211,0.736072 7.33784,1.137076 1.68543,0.277878 3.36211,0.564501 5.04754,0.867273 10.16842,1.815957 17.85815,10.241757 18.8398,20.532623 0.63784,6.65089 1.21041,13.29303 1.71772,19.94391 0.31892,4.09011 0.60555,8.18022 0.86728,12.26226 0.25365,3.86942 0.48241,7.73077 0.68695,11.59144 0.22069,4.09011 0.40908,8.18022 0.57258,12.271 0.16349,3.86135 0.30277,7.72203 0.41715,11.59145 0.12245,4.09011 0.21261,8.18022 0.28662,12.271 0.0646,3.86135 0.11371,7.73077 0.1386,11.59212 z"
   id="path4" /><g
   id="g32"
   style="stroke:url(#linearGradient40)"
   transform="matrix(0.67282599,0,0,0.67282599,83.75722,83.756546)">
	<path
   style="opacity:0.25;fill:#4d4d4d;stroke:url(#linearGradient11);enable-background:new"
   d="M 379.009,39.016 C 377.55,23.721 366.121,11.198 351.008,8.499 344.868,7.405 338.728,6.408 332.6,5.52 319.834,3.684 307.067,2.298 294.301,1.386 281.536,0.462 268.769,0 256.003,0 c -10.538,0 -21.074,0.333 -31.612,0.963 2.229,0.133 4.458,0.263 6.687,0.423 12.766,0.912 25.533,2.298 38.299,4.134 6.128,0.888 12.268,1.885 18.408,2.979 15.113,2.699 26.542,15.222 28.001,30.517 9.313,96.756 9.313,193.512 0,290.28 -1.459,15.283 -12.888,27.806 -28.001,30.505 -12.973,2.322 -25.946,4.17 -38.919,5.532 -8.156,0.864 -16.315,1.516 -24.475,2.001 5.269,0.312 10.539,0.57 15.806,0.722 10.529,0.316 21.07,0.316 31.612,0 13.423,-0.389 26.858,-1.301 40.281,-2.723 12.973,-1.362 25.946,-3.21 38.919,-5.532 15.113,-2.699 26.542,-15.222 28.001,-30.505 9.312,-96.768 9.312,-193.524 -10e-4,-290.28 z"
   id="path5" />
	<g
   style="opacity:0.25;stroke:url(#linearGradient38)"
   id="g31">
		<path
   style="fill:#4d4d4d;stroke:url(#linearGradient12)"
   d="m 178.725,77.777 c 0,5.034 -4.085,9.119 -9.119,9.119 h -40.293 c -0.061,0 -0.109,0 -0.17,-0.012 0.389,-6.079 0.815,-12.146 1.289,-18.225 h 39.174 c 5.033,-0.001 9.119,4.072 9.119,9.118 z"
   id="path6" />
		<path
   style="fill:#4d4d4d;stroke:url(#linearGradient13)"
   d="m 382.851,86.884 c -0.049,0.012 -0.109,0.012 -0.158,0.012 H 342.4 c -5.034,0 -9.119,-4.085 -9.119,-9.119 0,-5.046 4.085,-9.119 9.119,-9.119 h 39.162 c 0.474,6.079 0.9,12.159 1.289,18.226 z"
   id="path7" />
		<path
   style="fill:#4d4d4d;stroke:url(#linearGradient14)"
   d="M 308.961,86.891 H 203.05 c -5.036,0 -9.119,-4.083 -9.119,-9.119 0,-5.036 4.083,-9.119 9.119,-9.119 h 105.911 c 5.036,0 9.119,4.083 9.119,9.119 0,5.036 -4.083,9.119 -9.119,9.119 z"
   id="path8" />
		<path
   style="fill:#4d4d4d;stroke:url(#linearGradient15)"
   d="m 178.725,113.231 c 0,5.034 -4.085,9.119 -9.119,9.119 h -42.323 c 0.231,-6.079 0.523,-12.158 0.839,-18.238 h 41.484 c 5.033,0 9.119,4.085 9.119,9.119 z"
   id="path9" />
		<path
   style="fill:#4d4d4d;stroke:url(#linearGradient16)"
   d="M 384.723,122.349 H 342.4 c -5.034,0 -9.119,-4.085 -9.119,-9.119 0,-5.034 4.085,-9.119 9.119,-9.119 h 41.472 c 0.329,6.08 0.608,12.159 0.851,18.238 z"
   id="path10" />
		<path
   style="fill:#4d4d4d;stroke:url(#linearGradient17)"
   d="M 308.961,122.352 H 203.05 c -5.036,0 -9.119,-4.083 -9.119,-9.119 0,-5.036 4.083,-9.119 9.119,-9.119 h 105.911 c 5.036,0 9.119,4.083 9.119,9.119 0,5.036 -4.083,9.119 -9.119,9.119 z"
   id="path11" />
		<path
   style="fill:#4d4d4d;stroke:url(#linearGradient18)"
   d="m 178.725,148.697 c 0,5.034 -4.085,9.119 -9.119,9.119 h -43.369 c 0.109,-6.079 0.243,-12.158 0.426,-18.238 h 42.943 c 5.033,0 9.119,4.085 9.119,9.119 z"
   id="path12" />
		<path
   style="fill:#4d4d4d;stroke:url(#linearGradient19)"
   d="M 385.769,157.815 H 342.4 c -5.034,0 -9.119,-4.085 -9.119,-9.119 0,-5.034 4.085,-9.119 9.119,-9.119 h 42.943 c 0.183,6.08 0.317,12.159 0.426,18.238 z"
   id="path13" />
		<path
   style="fill:#4d4d4d;stroke:url(#linearGradient20)"
   d="M 308.961,157.814 H 203.05 c -5.036,0 -9.119,-4.083 -9.119,-9.119 0,-5.036 4.083,-9.119 9.119,-9.119 h 105.911 c 5.036,0 9.119,4.083 9.119,9.119 0,5.036 -4.083,9.119 -9.119,9.119 z"
   id="path14" />
		<path
   style="fill:#4d4d4d;stroke:url(#linearGradient21)"
   d="m 178.725,184.162 c 0,5.034 -4.085,9.119 -9.119,9.119 H 126.03 c -0.012,-3.04 -0.024,-6.079 -0.024,-9.119 0,-3.04 0.012,-6.079 0.024,-9.119 h 43.575 c 5.034,0.001 9.12,4.074 9.12,9.119 z"
   id="path15" />
		<path
   style="fill:#4d4d4d;stroke:url(#linearGradient22)"
   d="m 385.976,175.044 c 0.024,6.079 0.024,12.158 0,18.238 H 342.4 c -5.034,0 -9.119,-4.085 -9.119,-9.119 0,-5.046 4.085,-9.119 9.119,-9.119 z"
   id="path16" />
		<path
   style="fill:#4d4d4d;stroke:url(#linearGradient23)"
   d="M 308.961,193.276 H 203.05 c -5.036,0 -9.119,-4.083 -9.119,-9.119 0,-5.036 4.083,-9.119 9.119,-9.119 h 105.911 c 5.036,0 9.119,4.083 9.119,9.119 0,5.036 -4.083,9.119 -9.119,9.119 z"
   id="path17" />
		<path
   style="fill:#4d4d4d;stroke:url(#linearGradient24)"
   d="m 178.725,219.616 c 0,5.034 -4.085,9.119 -9.119,9.119 h -42.943 c -0.17,-6.079 -0.316,-12.158 -0.426,-18.238 h 43.369 c 5.033,0 9.119,4.086 9.119,9.119 z"
   id="path18" />
		<path
   style="fill:#4d4d4d;stroke:url(#linearGradient25)"
   d="m 385.769,210.497 c -0.109,6.079 -0.255,12.158 -0.426,18.238 H 342.4 c -5.034,0 -9.119,-4.085 -9.119,-9.119 0,-5.034 4.085,-9.119 9.119,-9.119 z"
   id="path19" />
		<path
   style="fill:#4d4d4d;stroke:url(#linearGradient26)"
   d="M 308.961,228.737 H 203.05 c -5.036,0 -9.119,-4.083 -9.119,-9.119 0,-5.036 4.083,-9.119 9.119,-9.119 h 105.911 c 5.036,0 9.119,4.083 9.119,9.119 0,5.037 -4.083,9.119 -9.119,9.119 z"
   id="path20" />
		<path
   style="fill:#4d4d4d;stroke:url(#linearGradient27)"
   d="m 178.725,255.082 c 0,5.034 -4.085,9.119 -9.119,9.119 h -41.472 c -0.328,-6.079 -0.608,-12.17 -0.851,-18.238 h 42.323 c 5.033,0 9.119,4.086 9.119,9.119 z"
   id="path21" />
		<path
   style="fill:#4d4d4d;stroke:url(#linearGradient28)"
   d="m 384.723,245.963 c -0.243,6.079 -0.523,12.158 -0.851,18.238 H 342.4 c -5.034,0 -9.119,-4.085 -9.119,-9.119 0,-5.034 4.085,-9.119 9.119,-9.119 z"
   id="path22" />
		<path
   style="fill:#4d4d4d;stroke:url(#linearGradient29)"
   d="M 308.961,264.2 H 203.05 c -5.036,0 -9.119,-4.083 -9.119,-9.119 0,-5.036 4.083,-9.119 9.119,-9.119 h 105.911 c 5.036,0 9.119,4.083 9.119,9.119 0,5.036 -4.083,9.119 -9.119,9.119 z"
   id="path23" />
		<path
   style="fill:#4d4d4d;stroke:url(#linearGradient30)"
   d="m 178.725,290.548 c 0,5.034 -4.085,9.119 -9.119,9.119 h -39.174 c -0.462,-6.079 -0.888,-12.158 -1.277,-18.225 0.049,-0.012 0.109,-0.012 0.158,-0.012 h 40.293 c 5.033,-0.001 9.119,4.072 9.119,9.118 z"
   id="path24" />
		<path
   style="fill:#4d4d4d;stroke:url(#linearGradient31)"
   d="m 382.851,281.441 c -0.389,6.079 -0.815,12.158 -1.289,18.225 H 342.4 c -5.034,0 -9.119,-4.085 -9.119,-9.119 0,-5.046 4.085,-9.119 9.119,-9.119 h 40.281 c 0.061,10e-4 0.109,10e-4 0.17,0.013 z"
   id="path25" />
		<path
   style="fill:#4d4d4d;stroke:url(#linearGradient32)"
   d="M 308.961,299.662 H 203.05 c -5.036,0 -9.119,-4.083 -9.119,-9.119 0,-5.036 4.083,-9.119 9.119,-9.119 h 105.911 c 5.036,0 9.119,4.083 9.119,9.119 0,5.036 -4.083,9.119 -9.119,9.119 z"
   id="path26" />
		<path
   style="fill:#4d4d4d;stroke:url(#linearGradient33)"
   d="m 186.737,5.52 v 18.93 c 0,5.034 -4.085,9.119 -9.119,9.119 -5.034,0 -9.119,-4.085 -9.119,-9.119 V 7.21 c 3.635,-0.596 7.271,-1.167 10.906,-1.69 2.42,-0.353 4.839,-0.681 7.271,-0.985 0.049,0.328 0.061,0.657 0.061,0.985 z"
   id="path27" />
		<path
   style="fill:#4d4d4d;stroke:url(#linearGradient34)"
   d="M 225.923,1.386 V 24.45 c 0,5.034 -4.073,9.119 -9.119,9.119 -5.034,0 -9.119,-4.085 -9.119,-9.119 V 2.201 c 3.344,-0.304 6.675,-0.571 10.018,-0.815 2.736,-0.195 5.459,-0.377 8.195,-0.523 0.025,0.17 0.025,0.341 0.025,0.523 z"
   id="path28" />
		<path
   style="fill:#4d4d4d;stroke:url(#linearGradient35)"
   d="M 265.122,0.085 V 24.45 c 0,5.034 -4.085,9.119 -9.119,9.119 -5.034,0 -9.119,-4.085 -9.119,-9.119 V 0.085 C 249.924,0.024 252.963,0 256.003,0 c 3.04,0 6.079,0.024 9.119,0.085 z"
   id="path29" />
		<path
   style="fill:#4d4d4d;stroke:url(#linearGradient36)"
   d="m 304.32,2.201 v 22.25 c 0,5.034 -4.085,9.119 -9.119,9.119 -5.034,0 -9.119,-4.085 -9.119,-9.119 V 1.386 c 0,-0.182 0,-0.353 0.024,-0.523 2.736,0.146 5.459,0.328 8.195,0.523 3.344,0.243 6.676,0.511 10.019,0.815 z"
   id="path30" />
		<path
   style="fill:#4d4d4d;stroke:url(#linearGradient37)"
   d="m 343.507,7.21 v 17.24 c 0,5.034 -4.073,9.119 -9.119,9.119 -5.034,0 -9.119,-4.085 -9.119,-9.119 V 5.52 c 0,-0.328 0.012,-0.657 0.061,-0.985 2.432,0.304 4.851,0.632 7.271,0.985 3.635,0.523 7.27,1.094 10.906,1.69 z"
   id="path31" />
	</g>
</g><path
   style="fill:none;stroke:none;stroke-width:1.04803;stroke-dasharray:none;stroke-opacity:1"
   d="m 457.91594,243.37031 c 0.0374,8.43366 0.0374,16.86733 0,25.30239 -0.056,7.96197 -0.16934,15.92255 -0.32158,23.88452 -0.16933,8.43365 -0.39613,16.86732 -0.66177,25.30238 -0.26409,7.96197 -0.58568,15.94057 -0.96316,23.90117 -0.37751,8.43366 -0.81248,16.86733 -1.32201,25.30238 -0.47226,7.96198 -1.00042,15.94058 -1.58609,23.91921 -0.6043,8.43367 -1.26611,16.86733 -2.00243,25.28436 -1.17133,13.69723 -2.49335,27.40976 -3.96604,41.10699 -2.26651,21.2028 -20.02118,38.57651 -43.49884,42.32095 -20.15323,3.2214 -40.30645,5.78522 -60.45966,7.67479 -20.85231,1.97418 -41.72324,3.23806 -62.57553,3.77773 -16.37518,0.43841 -32.75191,0.43841 -49.10847,0 -20.85226,-0.53967 -41.72321,-1.80494 -62.57549,-3.77773 -20.15323,-1.88957 -40.30646,-4.45339 -60.45968,-7.67479 -23.477662,-3.74444 -41.232317,-21.11815 -43.517484,-42.32095 -1.472694,-13.7139 -2.794699,-27.40976 -3.96602,-41.10699 -0.717707,-8.43368 -1.379486,-16.86735 -1.983787,-25.28436 -0.585661,-7.97863 -1.113843,-15.95723 -1.5861,-23.91921 -0.509539,-8.43367 -0.944512,-16.88537 -1.322005,-25.30238 -0.377496,-7.96198 -0.699064,-15.94058 -0.963154,-23.90117 -0.264092,-8.43367 -0.4909,-16.86734 -0.661781,-25.30238 -0.150688,-7.96197 -0.264092,-15.92255 -0.32157,-23.88452 -0.01864,-4.21755 -0.03728,-8.43367 -0.03728,-12.6512 0,-4.21753 0.01863,-8.43366 0.03728,-12.65119 0.05593,-7.96197 0.169329,-15.94059 0.32157,-23.90117 0.16933,-8.43365 0.377494,-16.86733 0.661781,-25.30238 0.26409,-7.96195 0.585658,-15.94057 0.963154,-23.90116 0.358852,-8.4337 0.812466,-16.86735 1.303366,-25.30239 0.472255,-7.96198 1.000437,-15.94059 1.586097,-23.90117 0.604302,-8.43366 1.266083,-16.85068 2.002429,-25.284363 1.152677,-13.71389 2.493326,-27.409754 3.96602,-41.123652 2.285167,-21.21943 20.039822,-38.593142 43.517484,-42.337585 3.89145,-0.624304 7.76272,-1.213925 11.65415,-1.788286 5.6469,-0.8268583 11.29533,-1.6190322 16.94221,-2.3446124 3.7594,-0.4897323 7.51726,-0.9447818 11.29531,-1.3665338 10.87898,-1.2819073 21.75797,-2.3612602 32.63849,-3.2380616 5.19485,-0.4217541 10.36946,-0.792174 15.56272,-1.1306871 4.25031,-0.2705328 8.48043,-0.5230288 12.73072,-0.7255802 10.86037,-0.556325 21.73935,-0.92813458 32.59968,-1.07935381 4.7241,-0.0860194 9.44512,-0.11931141 14.16768,-0.11931141 4.72257,0 9.44357,0.0332984 14.16615,0.11792284 10.86033,0.15122122 21.73931,0.52302978 32.59966,1.07935588 4.25031,0.2025514 8.48042,0.4550484 12.73073,0.7255802 5.19481,0.3371245 10.36944,0.7089329 15.56271,1.130686 10.87898,0.8768014 21.75797,1.9561542 32.63851,3.2380606 3.77804,0.4217531 7.5359,0.8768014 11.2953,1.3665358 5.64688,0.7255802 11.29532,1.5177542 16.94219,2.344612 3.89147,0.572973 7.76274,1.163982 11.65418,1.788285 23.47766,3.744442 41.23233,21.118155 43.49885,42.337586 1.4727,13.713898 2.7947,27.409758 3.96601,41.123657 0.73636,8.433685 1.39813,16.867325 2.00244,25.284355 0.58565,7.97861 1.11384,15.94058 1.58609,23.90116 0.50955,8.43365 0.94452,16.86733 1.32201,25.30239 0.3775,7.96199 0.69907,15.92256 0.96315,23.90117 0.28274,8.43367 0.4909,16.86734 0.66178,25.30238 0.14913,7.96197 0.26256,15.94059 0.32003,23.90256 z"
   id="path44"
   inkscape:label="outer_limit" /><path
   style="baseline-shift:baseline;display:inline;overflow:visible;vector-effect:none;fill:none;stroke:none;stroke-opacity:1;enable-background:accumulate;stop-color:#000000"
   d="m 256.00391,51 c -3.31949,0 -6.64849,0.02657 -9.99219,0.09375 -7.67331,0.118402 -15.3492,0.407661 -23.00391,0.841797 -3.02984,0.160008 -6.02362,0.359821 -9.00781,0.570312 h -0.008 -0.006 c -3.65509,0.26402 -7.30652,0.554225 -10.98047,0.884766 -7.66765,0.684809 -15.33487,1.527162 -23,2.527344 -6.4e-4,7.9e-5 -0.001,-8e-5 -0.002,0 -2.68454,0.332112 -5.35557,0.690756 -8.02539,1.076172 -3.99488,0.568971 -7.9756,1.188832 -11.93946,1.832031 h -0.004 -0.006 c -2.73487,0.447316 -5.46568,0.909036 -8.21875,1.398437 -19.72911,3.48695 -34.7312,19.729808 -36.65625,39.539063 v 0.002 0.002 c -1.02973,10.626148 -1.96772,21.248268 -2.77539,31.894528 -1.6e-4,0.002 1.5e-4,0.004 0,0.006 -4.5e-4,0.006 -0.002,0.0117 -0.002,0.0176 -0.51517,6.54029 -0.97794,13.06509 -1.40039,19.59765 -0.41039,6.18161 -0.78052,12.37613 -1.11133,18.55664 v 0.004 l -0.002,0.004 c -0.34316,6.53434 -0.66003,13.08352 -0.91211,19.64843 -0.26382,6.1689 -0.48915,12.35146 -0.67383,18.52149 -0.19935,6.55509 -0.34451,13.09725 -0.46289,19.63086 v 0.004 0.004 c -0.10648,6.17042 -0.18539,12.35902 -0.22461,18.54102 v 0.01 l -0.002,0.01 c -0.013,3.25699 -0.0254,6.52327 -0.0254,9.80078 0,3.2775 0.0124,6.54183 0.0254,9.79883 l 0.002,0.01 v 0.01 c 0.0403,6.18123 0.11923,12.357 0.22461,18.52734 v 0.004 0.006 c 0.11965,6.54473 0.27828,13.08184 0.46289,19.61523 v 0.008 0.006 c 0.18503,6.18067 0.41132,12.37506 0.67579,18.55664 l -0.002,-0.0176 c 0.26432,6.53079 0.5704,13.09215 0.92774,19.64648 l -0.002,-0.006 c 0.33082,6.1805 0.701,12.37366 1.11133,18.56836 0.42291,6.52701 0.88648,13.06791 1.38867,19.60742 v 0.002 c 0.82017,10.62834 1.74626,21.25435 2.77735,31.89454 v 0.002 0.002 c 1.92554,19.79869 16.92714,36.0404 36.65625,39.52735 l -0.002,-0.002 c 14.21907,2.51872 28.44277,4.52529 42.67188,6.00391 14.71934,1.54322 29.45703,2.53252 44.18359,2.95508 11.55103,0.34309 23.11601,0.34308 34.67969,0 14.72619,-0.42255 29.46155,-1.4107 44.18164,-2.95508 14.22911,-1.47862 28.45477,-3.48519 42.67383,-6.00391 19.72571,-3.4883 34.72895,-19.72776 36.64062,-39.52734 v -0.004 c 1.03062,-10.62271 1.95562,-21.25691 2.77539,-31.8789 l 0.002,-0.0137 c 0.51597,-6.53697 0.97949,-13.08134 1.40234,-19.62109 l -0.002,0.0117 c 0.4102,-6.19275 0.78059,-12.38394 1.11133,-18.5625 v -0.006 c 0.35684,-6.54695 0.66168,-13.08639 0.92578,-19.62305 v -0.0176 c 0.26414,-6.17474 0.48898,-12.36314 0.67383,-18.53907 v -0.006 -0.006 c 0.18573,-6.5353 0.34431,-13.07464 0.46289,-19.61914 l 0.002,-0.004 v -0.002 c 0.10648,-6.17126 0.1854,-12.34721 0.22461,-18.52929 v -0.01 -0.01 c 0.0261,-6.5345 0.0261,-13.06618 0,-19.59961 v -0.01 -0.01 c -0.0403,-6.18115 -0.12033,-12.36943 -0.22461,-18.53907 v -0.006 -0.006 c -0.11944,-6.53383 -0.26466,-13.0757 -0.46289,-19.6289 v -0.002 c -0.18504,-6.19454 -0.41135,-12.37423 -0.67578,-18.55468 l 0.002,0.0176 c -0.26433,-6.54556 -0.57042,-13.09471 -0.92773,-19.64844 l 0.002,0.008 c -0.33063,-6.17608 -0.70136,-12.3529 -1.11133,-18.54297 v -0.0117 c -0.42267,-6.52313 -0.88668,-13.06362 -1.40234,-19.60937 v -0.0117 c -0.81997,-10.63772 -1.74664,-21.26018 -2.77735,-31.896481 l 0.002,0.0039 C 394.93231,79.958902 379.9302,63.714553 360.20508,60.224609 357.45125,59.735026 354.716,59.273474 351.97461,58.826172 l -0.002,-0.002 h -0.004 c -3.96901,-0.644037 -7.95495,-1.264402 -11.95508,-1.833985 -2.66463,-0.384561 -5.33045,-0.740799 -8.00976,-1.072265 -6.5e-4,-8e-5 -10e-4,7.9e-5 -0.002,0 -7.66609,-1.000167 -15.33348,-1.844491 -23,-2.529297 h -0.006 c -3.66955,-0.330205 -7.31923,-0.621744 -10.97656,-0.884766 h -0.006 -0.006 C 295.03397,52.294146 292.05033,52.097217 289.03125,51.9375 281.3662,51.502382 273.67984,51.210359 265.99609,51.091797 262.65441,51.025697 259.32405,51 256.00391,51 Z m 0,15.416016 c 3.25088,0 6.48956,0.02571 9.71875,0.08984 h 0.0176 0.0176 c 7.45277,0.114998 14.92891,0.398136 22.40039,0.822266 l 0.0137,0.002 h 0.0156 c 2.894,0.152834 5.79668,0.345387 8.73633,0.552734 3.57697,0.257303 7.13266,0.540704 10.69531,0.861329 h 0.004 0.002 c 7.47649,0.667754 14.95452,1.490324 22.43359,2.466796 l 0.0254,0.002 0.0254,0.0039 c 2.58044,0.319221 5.14763,0.66427 7.7168,1.035156 h 0.008 l 0.006,0.002 c 3.8702,0.551081 7.75887,1.154062 11.66016,1.78711 h -0.008 c 2.68228,0.437657 5.34379,0.886669 8.01367,1.361328 l 0.004,0.002 h 0.004 c 12.99275,2.296358 22.73323,12.883577 23.98242,25.843755 v 0.002 0.002 c 1.02148,10.541 1.93768,21.06785 2.75,31.60742 l 0.002,0.006 v 0.008 c 0.50994,6.47229 0.96758,12.9487 1.38672,19.41797 l 0.002,0.006 v 0.006 c 0.40598,6.12902 0.77224,12.24419 1.09961,18.35938 v 0.004 0.004 c 0.35286,6.47209 0.65423,12.9492 0.91601,19.43164 v 0.01 0.008 c 0.26169,6.1162 0.48494,12.23158 0.66797,18.35938 v 0.002 c 0.19578,6.47199 0.34028,12.95575 0.45899,19.44922 0.10347,6.12377 0.18284,12.25495 0.22265,18.36718 0.0258,6.48004 0.0258,12.9603 0,19.44141 -0.0388,6.11522 -0.11695,12.23334 -0.22265,18.35938 -0.11735,6.47547 -0.27466,12.95655 -0.45899,19.44336 -0.18304,6.11552 -0.40632,12.24476 -0.66797,18.35937 v 0.008 l -0.002,0.01 c -0.2618,6.4814 -0.56316,12.95841 -0.91602,19.43164 v 0.004 0.004 c -0.3274,6.1168 -0.69367,12.24473 -1.0996,18.37305 v 0.006 0.006 c -0.41909,6.48151 -0.87882,12.95939 -1.38868,19.41797 v 0.006 0.008 c -0.8124,10.52761 -1.72865,21.06687 -2.75,31.59375 l -0.002,0.002 v 0.002 c -1.24871,12.94504 -10.98967,23.53568 -23.98242,25.83204 h -0.002 c -13.86682,2.45632 -27.72725,4.40986 -41.58399,5.8496 l -0.004,0.002 h -0.004 c -14.34009,1.50451 -28.69141,2.46781 -43.02539,2.8789 h -0.004 -0.002 c -11.25914,0.33405 -22.51984,0.33403 -33.76563,0 h -0.004 -0.004 c -14.3336,-0.41108 -28.68457,-1.37537 -43.02539,-2.8789 h -0.002 l -0.004,-0.002 c -13.85674,-1.43974 -27.71912,-3.39328 -41.58594,-5.8496 h -0.002 c -12.99211,-2.29624 -22.73593,-12.88772 -23.99609,-25.83594 v -0.002 c -1.02134,-10.53969 -1.93773,-21.064 -2.75,-31.58984 v -0.002 c -0.49776,-6.4818 -0.95787,-12.96305 -1.37696,-19.43164 v -0.006 -0.006 c -0.40593,-6.12832 -0.7722,-12.25625 -1.09961,-18.37305 v -0.004 -0.004 c -0.35282,-6.47151 -0.65418,-12.96231 -0.91601,-19.43164 v -0.01 l -0.002,-0.008 c -0.26149,-6.11181 -0.48304,-12.23704 -0.66602,-18.34766 v -0.0117 c -0.18323,-6.48528 -0.34056,-12.96533 -0.45898,-19.44141 v -0.01 c -0.10456,-6.12369 -0.1848,-12.2407 -0.22461,-18.35351 l 0.002,0.0195 c -0.013,-3.25701 -0.0273,-6.5018 -0.0273,-9.73828 0,-3.23649 0.0143,-6.48323 0.0273,-9.74024 l -0.002,0.0176 c 0.0388,-6.11333 0.11896,-12.24439 0.22461,-18.36719 v -0.006 c 0.11759,-6.4896 0.2622,-12.96721 0.45898,-19.4375 v -0.002 -0.002 c 0.18305,-6.11554 0.40437,-12.24478 0.66602,-18.35938 l 0.002,-0.0176 v -0.0156 c 0.24808,-6.46095 0.56328,-12.93803 0.9043,-19.43164 l -0.002,0.008 c 0.3274,-6.11678 0.69374,-12.24582 1.09961,-18.35937 l 0.002,-0.008 v -0.006 c 0.41904,-6.48085 0.87671,-12.94488 1.38671,-19.41797 l 0.002,-0.0117 v -0.01 c 0.79839,-10.5264 1.72799,-21.04915 2.75,-31.5957 v -0.002 c 1.26064,-12.963383 11.00398,-23.551418 23.99609,-25.847662 l 0.004,-0.002 h 0.004 c 2.66467,-0.473733 5.32303,-0.922487 8.00586,-1.361328 l 0.01,-0.002 c 3.89798,-0.632466 7.78152,-1.236493 11.64844,-1.78711 h 0.008 l 0.008,-0.002 c 2.56918,-0.370886 5.13636,-0.715935 7.7168,-1.035156 l 0.0254,-0.002 0.0254,-0.0039 c 7.47789,-0.976456 14.95607,-1.799045 22.43359,-2.466796 h 0.002 0.002 c 3.56631,-0.320858 7.12793,-0.602516 10.71094,-0.861329 2.93493,-0.206976 5.83316,-0.398185 8.72265,-0.550781 l 0.0156,-0.002 h 0.0137 c 7.47149,-0.424129 14.94762,-0.707267 22.40039,-0.822266 h 0.0176 l 0.0195,-0.002 c 3.22866,-0.06515 6.46592,-0.08984 9.7168,-0.08984 z"
   id="path46"
   inkscape:label="inner_limit" /></svg>
