<?xml version="1.0" encoding="UTF-8" standalone="no"?>
<!-- Uploaded to: SVG Repo, www.svgrepo.com, Generator: SVG Repo Mixer Tools -->

<svg
   version="1.1"
   id="Layer_1"
   viewBox="0 0 512 512"
   xml:space="preserve"
   sodipodi:docname="syllablaze.svg"
   inkscape:version="1.4.3 (0d15f75042, 2025-12-25)"
   xmlns:inkscape="http://www.inkscape.org/namespaces/inkscape"
   xmlns:sodipodi="http://sodipodi.sourceforge.net/DTD/sodipodi-0.dtd"
   xmlns:xlink="http://www.w3.org/1999/xlink"
   xmlns="http://www.w3.org/2000/svg"
   xmlns:svg="http://www.w3.org/2000/svg"><defs
   id="defs32"><linearGradient
     id="linearGradient45"
     inkscape:collect="always"><stop
       style="stop-color:#a0a0ff;stop-opacity:1;"
       offset="0"
       id="stop44" /><stop
       style="stop-color:#6464ff;stop-opacity:1;"
       offset="1"
       id="stop45" /></linearGradient><linearGradient
     id="linearGradient39"
     inkscape:collect="always"><stop
       style="stop-color:#cccccc;stop-opacity:1;"
       offset="0"
       id="stop40" /><stop
       style="stop-color:#939393;stop-opacity:1;"
       offset="1"
       id="stop41" /></linearGradient><linearGradient
     inkscape:collect="always"
     xlink:href="#linearGradient39"
     id="linearGradient1"
     gradientUnits="userSpaceOnUse"
     x1="119.83018"
     y1="119.83015"
     x2="392.16989"
     y2="392.16986"
     gradientTransform="matrix(0.77080899,0,0,0.77080899,130.17929,58.072005)" /><linearGradient
     inkscape:collect="always"
     xlink:href="#linearGradient39"
     id="linearGradient2"
     gradientUnits="userSpaceOnUse"
     x1="119.83018"
     y1="119.83015"
     x2="392.16989"
     y2="392.16986"
     gradientTransform="matrix(0.67282599,0,0,0.67282599,155.26361,83.155652)" /><linearGradient
     inkscape:collect="always"
     xlink:href="#linearGradient39"
     id="linearGradient3"
     gradientUnits="userSpaceOnUse"
     x1="119.83018"
     y1="119.83015"
     x2="392.16989"
     y2="392.16986" /><linearGradient
     inkscape:collect="always"
     xlink:href="#linearGradient39"
     id="linearGradient4"
     gradientUnits="userSpaceOnUse"
     x1="119.83018"
     y1="119.83015"
     x2="392.16989"
     y2="392.16986" /><linearGradient
     inkscape:collect="always"
     xlink:href="#linearGradient39"
     id="linearGradient5"
     gradientUnits="userSpaceOnUse"
     x1="119.83018"
     y1="119.83015"
     x2="392.16989"
     y2="392.16986" /><linearGradient
     inkscape:collect="always"
     xlink:href="#linearGradient39"
     id="linearGradient6"
     gradientUnits="userSpaceOnUse"
     x1="119.83018"
     y1="119.83015"
     x2="392.16989"
     y2="392.16986"
     gradientTransform="matrix(0.67282599,0,0,0.67282599,155.26361,83.155652)" /><linearGradient
     inkscape:collect="always"
     xlink:href="#linearGradient39"
     id="linearGradient7"
     gradientUnits="userSpaceOnUse"
     x1="119.83018"
     y1="119.83015"
     x2="392.16989"
     y2="392.16986" /><linearGradient
     inkscape:collect="always"
     xlink:href="#linearGradient39"
     id="linearGradient8"
     gradientUnits="userSpaceOnUse"
     x1="119.83018"
     y1="119.83015"
     x2="392.16989"
     y2="392.16986" /><linearGradient
     inkscape:collect="always"
     xlink:href="#linearGradient39"
     id="linearGradient9"
     gradientUnits="userSpaceOnUse"
     x1="119.83018"
     y1="119.83015"
     x2="392.16989"
     y2="392.16986" /><linearGradient
     inkscape:collect="always"
     xlink:href="#linearGradient39"
     id="linearGradient10"
     gradientUnits="userSpaceOnUse"
     x1="119.83018"
     y1="119.83015"
     x2="392.16989"
     y2="392.16986"
     gradientTransform="matrix(0.67282599,0,0,0.67282599,155.26361,83.155652)" /><linearGradient
     inkscape:collect="always"
     xlink:href="#linearGradient39"
     id="linearGradient11"
     gradientUnits="userSpaceOnUse"
     x1="119.83018"
     y1="119.83015"
     x2="392.16989"
     y2="392.16986" /><linearGradient
     inkscape:collect="always"
     xlink:href="#linearGradient39"
     id="linearGradient12"
     gradientUnits="userSpaceOnUse"
     x1="119.83018"
     y1="119.83015"
     x2="392.16989"
     y2="392.16986" /><linearGradient
     inkscape:collect="always"
     xlink:href="#linearGradient39"
     id="linearGradient13"
     gradientUnits="userSpaceOnUse"
     x1="119.83018"
     y1="119.83015"
     x2="392.16989"
     y2="392.16986" /><linearGradient
     inkscape:collect="always"
     xlink:href="#linearGradient39"
     id="linearGradient14"
     gradientUnits="userSpaceOnUse"
     x1="119.83018"
     y1="119.83015"
     x2="392.16989"
     y2="392.16986" /><linearGradient
     inkscape:collect="always"
     xlink:href="#linearGradient39"
     id="linearGradient15"
     gradientUnits="userSpaceOnUse"
     x1="119.83018"
     y1="119.83015"
     x2="392.16989"
     y2="392.16986" /><linearGradient
     inkscape:collect="always"
     xlink:href="#linearGradient39"
     id="linearGradient16"
     gradientUnits="userSpaceOnUse"
     x1="119.83018"
     y1="119.83015"
     x2="392.16989"
     y2="392.16986" /><linearGradient
     inkscape:collect="always"
     xlink:href="#linearGradient39"
     id="linearGradient17"
     gradientUnits="userSpaceOnUse"
     x1="119.83018"
     y1="119.83015"
     x2="392.16989"
     y2="392.16986" /><linearGradient
     inkscape:collect="always"
     xlink:href="#linearGradient39"
     id="linearGradient18"
     gradientUnits="userSpaceOnUse"
     x1="119.83018"
     y1="119.83015"
     x2="392.16989"
     y2="392.16986" /><linearGradient
     inkscape:collect="always"
     xlink:href="#linearGradient39"
     id="linearGradient19"
     gradientUnits="userSpaceOnUse"
     x1="119.83018"
     y1="119.83015"
     x2="392.16989"
     y2="392.16986" /><linearGradient
     inkscape:collect="always"
     xlink:href="#linearGradient39"
     id="linearGradient20"
     gradientUnits="userSpaceOnUse"
     x1="119.83018"
     y1="119.83015"
     x2="392.16989"
     y2="392.16986" /><linearGradient
     inkscape:collect="always"
     xlink:href="#linearGradient39"
     id="linearGradient21"
     gradientUnits="userSpaceOnUse"
     x1="119.83018"
     y1="119.83015"
     x2="392.16989"
     y2="392.16986" /><linearGradient
     inkscape:collect="always"
     xlink:href="#linearGradient39"
     id="linearGradient22"
     gradientUnits="userSpaceOnUse"
     x1="119.83018"
     y1="119.83015"
     x2="392.16989"
     y2="392.16986" /><linearGradient
     inkscape:collect="always"
     xlink:href="#linearGradient39"
     id="linearGradient23"
     gradientUnits="userSpaceOnUse"
     x1="119.83018"
     y1="119.83015"
     x2="392.16989"
     y2="392.16986" /><linearGradient
     inkscape:collect="always"
     xlink:href="#linearGradient39"
     id="linearGradient24"
     gradientUnits="userSpaceOnUse"
     x1="119.83018"
     y1="119.83015"
     x2="392.16989"
     y2="392.16986" /><linearGradient
     inkscape:collect="always"
     xlink:href="#linearGradient39"
     id="linearGradient25"
     gradientUnits="userSpaceOnUse"
     x1="119.83018"
     y1="119.83015"
     x2="392.16989"
     y2="392.16986" /><linearGradient
     inkscape:collect="always"
     xlink:href="#linearGradient39"
     id="linearGradient26"
     gradientUnits="userSpaceOnUse"
     x1="119.83018"
     y1="119.83015"
     x2="392.16989"
     y2="392.16986" /><linearGradient
     inkscape:collect="always"
     xlink:href="#linearGradient39"
     id="linearGradient27"
     gradientUnits="userSpaceOnUse"
     x1="119.83018"
     y1="119.83015"
     x2="392.16989"
     y2="392.16986" /><linearGradient
     inkscape:collect="always"
     xlink:href="#linearGradient39"
     id="linearGradient28"
     gradientUnits="userSpaceOnUse"
     x1="119.83018"
     y1="119.83015"
     x2="392.16989"
     y2="392.16986" /><linearGradient
     inkscape:collect="always"
     xlink:href="#linearGradient39"
     id="linearGradient29"
     gradientUnits="userSpaceOnUse"
     x1="119.83018"
     y1="119.83015"
     x2="392.16989"
     y2="392.16986" /><linearGradient
     inkscape:collect="always"
     xlink:href="#linearGradient39"
     id="linearGradient30"
     gradientUnits="userSpaceOnUse"
     x1="119.83018"
     y1="119.83015"
     x2="392.16989"
     y2="392.16986" /><linearGradient
     inkscape:collect="always"
     xlink:href="#linearGradient39"
     id="linearGradient31"
     gradientUnits="userSpaceOnUse"
     x1="119.83018"
     y1="119.83015"
     x2="392.16989"
     y2="392.16986" /><linearGradient
     inkscape:collect="always"
     xlink:href="#linearGradient39"
     id="linearGradient32"
     gradientUnits="userSpaceOnUse"
     x1="119.83018"
     y1="119.83015"
     x2="392.16989"
     y2="392.16986" /><linearGradient
     inkscape:collect="always"
     xlink:href="#linearGradient39"
     id="linearGradient33"
     gradientUnits="userSpaceOnUse"
     x1="119.83018"
     y1="119.83015"
     x2="392.16989"
     y2="392.16986" /><linearGradient
     inkscape:collect="always"
     xlink:href="#linearGradient39"
     id="linearGradient34"
     gradientUnits="userSpaceOnUse"
     x1="119.83018"
     y1="119.83015"
     x2="392.16989"
     y2="392.16986" /><linearGradient
     inkscape:collect="always"
     xlink:href="#linearGradient39"
     id="linearGradient35"
     gradientUnits="userSpaceOnUse"
     x1="119.83018"
     y1="119.83015"
     x2="392.16989"
     y2="392.16986" /><linearGradient
     inkscape:collect="always"
     xlink:href="#linearGradient39"
     id="linearGradient36"
     gradientUnits="userSpaceOnUse"
     x1="119.83018"
     y1="119.83015"
     x2="392.16989"
     y2="392.16986" /><linearGradient
     inkscape:collect="always"
     xlink:href="#linearGradient39"
     id="linearGradient37"
     gradientUnits="userSpaceOnUse"
     x1="119.83018"
     y1="119.83015"
     x2="392.16989"
     y2="392.16986" /><linearGradient
     inkscape:collect="always"
     xlink:href="#linearGradient39"
     id="linearGradient38"
     gradientUnits="userSpaceOnUse"
     x1="119.83018"
     y1="119.83015"
     x2="392.16989"
     y2="392.16986" /><linearGradient
     inkscape:collect="always"
     xlink:href="#linearGradient39"
     id="linearGradient40"
     gradientUnits="userSpaceOnUse"
     x1="119.83018"
     y1="119.83015"
     x2="392.16989"
     y2="392.16986" /><linearGradient
     inkscape:collect="always"
     xlink:href="#linearGradient45"
     id="linearGradient52"
     x1="189.20285"
     y1="156.57426"
     x2="357.63864"
     y2="399.61493"
     gradientUnits="userSpaceOnUse"
     gradientTransform="translate(71.506394,-0.60089407)" /></defs><sodipodi:namedview
   id="namedview32"
   pagecolor="#ffffff"
   bordercolor="#111111"
   borderopacity="1"
   inkscape:showpageshadow="0"
   inkscape:pageopacity="0"
   inkscape:pagecheckerboard="1"
   inkscape:deskcolor="#d1d1d1"
   inkscape:zoom="1.6641868"
   inkscape:cx="161.03961"
   inkscape:cy="264.69384"
   inkscape:window-width="2560"
   inkscape:window-height="1408"
   inkscape:window-x="0"
   inkscape:window-y="0"
   inkscape:window-maximized="1"
   inkscape:current-layer="Layer_1" />






<g
   id="g570"><path
     id="waveform"
     style="fill:#000000;fill-opacity:0;stroke:none;stroke-width:1.04803;stroke-dasharray:none;stroke-opacity:1"
     inkscape:label="waveform"
     d="M 256.00586 0.5234375 C 251.2833 0.5234375 246.56199 0.55655913 241.83789 0.64257812 C 230.97756 0.79379733 220.09865 1.1663313 209.23828 1.7226562 C 204.98799 1.9252077 200.75812 2.178686 196.50781 2.4492188 C 191.31455 2.7877319 186.14016 3.1563709 180.94531 3.578125 C 170.06479 4.4549264 159.18562 5.5344989 148.30664 6.8164062 C 144.52859 7.2381582 140.77112 7.6938614 137.01172 8.1835938 C 131.36484 8.9091739 125.71721 9.7004861 120.07031 10.527344 C 116.17888 11.101705 112.30747 11.692102 108.41602 12.316406 C 84.938348 16.060849 67.183607 33.434867 64.898438 54.654297 C 63.425748 68.368195 62.084321 82.063454 60.931641 95.777344 C 60.195301 104.21103 59.533997 112.62884 58.929688 121.0625 C 58.344027 129.02308 57.816 137.00091 57.34375 144.96289 C 56.85285 153.39793 56.397912 161.83193 56.039062 170.26562 C 55.661562 178.22621 55.340262 186.20407 55.076172 194.16602 C 54.791882 202.60107 54.583393 211.0351 54.414062 219.46875 C 54.261812 227.42933 54.14965 235.40912 54.09375 243.37109 C 54.07505 247.58862 54.056641 251.80395 54.056641 256.02148 C 54.056641 260.23901 54.07515 264.45432 54.09375 268.67188 C 54.15122 276.63385 54.263373 284.59467 54.414062 292.55664 C 54.584943 300.99168 54.812072 309.4257 55.076172 317.85938 C 55.340262 325.81996 55.661563 333.79974 56.039062 341.76172 C 56.416553 350.17873 56.851788 358.62883 57.361328 367.0625 C 57.833578 375.02448 58.361596 383.00379 58.947266 390.98242 C 59.551566 399.39943 60.213941 407.8339 60.931641 416.26758 C 62.102961 429.96481 63.425747 443.65915 64.898438 457.37305 C 67.183607 478.57585 84.938348 495.95087 108.41602 499.69531 C 128.56924 502.91671 148.72177 505.47957 168.875 507.36914 C 189.72728 509.34193 210.59891 510.60681 231.45117 511.14648 C 247.80773 511.58489 264.18341 511.58489 280.55859 511.14648 C 301.41088 510.60681 322.28246 509.34332 343.13477 507.36914 C 363.28798 505.47957 383.44052 502.91671 403.59375 499.69531 C 427.07141 495.95087 444.82724 478.57585 447.09375 457.37305 C 448.56644 443.67582 449.88726 429.96481 451.05859 416.26758 C 451.79491 407.85055 452.45625 399.41609 453.06055 390.98242 C 453.64622 383.00379 454.17422 375.02448 454.64648 367.0625 C 455.15601 358.62745 455.59124 350.19538 455.96875 341.76172 C 456.34623 333.80112 456.66755 325.82135 456.93164 317.85938 C 457.19728 309.42432 457.42442 300.99029 457.59375 292.55664 C 457.74599 284.59467 457.86002 276.63385 457.91602 268.67188 C 457.95342 260.23682 457.95342 251.80475 457.91602 243.37109 C 457.85855 235.40912 457.74483 227.42877 457.5957 219.4668 C 457.42482 211.03176 457.21633 202.59969 456.93359 194.16602 C 456.66951 186.18741 456.3482 178.22566 455.9707 170.26367 C 455.59321 161.82861 455.15799 153.39459 454.64844 144.96094 C 454.17619 137.00036 453.64815 129.03916 453.0625 121.06055 C 452.45819 112.64352 451.79691 104.20907 451.06055 95.775391 C 449.88924 82.061492 448.56645 68.366242 447.09375 54.652344 C 444.82723 33.432913 427.07336 16.058895 403.5957 12.314453 C 399.70426 11.69015 395.83288 11.100317 391.94141 10.527344 C 386.29454 9.7004862 380.64688 8.9072208 375 8.1816406 C 371.2406 7.6919062 367.48116 7.2381594 363.70312 6.8164062 C 352.82259 5.5344998 341.94343 4.4549264 331.06445 3.578125 C 325.87118 3.1563719 320.69676 2.7843901 315.50195 2.4472656 C 311.25164 2.1767338 307.02179 1.9232545 302.77148 1.7207031 C 291.91113 1.164377 281.0322 0.79379932 270.17188 0.64257812 C 265.4493 0.55795323 260.72843 0.5234375 256.00586 0.5234375 z M 256.00391 58.707031 C 259.29494 58.707031 262.58592 58.733428 265.87695 58.798828 C 273.44521 58.915608 281.02548 59.201239 288.59375 59.630859 C 291.55567 59.787283 294.50292 59.982486 297.46484 60.191406 C 301.08496 60.451756 304.6915 60.738753 308.31055 61.064453 C 315.89181 61.741563 323.4743 62.576446 331.05664 63.566406 C 333.68945 63.892106 336.30791 64.242894 338.92773 64.621094 C 342.86289 65.181424 346.79922 65.793101 350.73438 66.431641 C 353.44622 66.874121 356.14362 67.330379 358.85547 67.8125 C 375.21639 70.704149 387.5885 84.121065 389.16797 100.50781 C 390.19425 111.0984 391.11538 121.67503 391.93164 132.26562 C 392.44478 138.77855 392.90699 145.29095 393.32812 151.79102 C 393.73625 157.95252 394.10449 164.10242 394.43359 170.25 C 394.78868 176.76291 395.09046 183.27506 395.35352 189.78906 C 395.61659 195.93771 395.84135 202.08459 396.02539 208.24609 C 396.22241 214.75901 396.36725 221.27313 396.48633 227.78711 C 396.59026 233.93576 396.66888 240.09745 396.70898 246.24609 C 396.73498 252.75901 396.73498 259.27117 396.70898 265.78516 C 396.66998 271.93381 396.59242 278.08182 396.48633 284.23047 C 396.36833 290.74338 396.20857 297.25554 396.02344 303.76953 C 395.83941 309.91818 395.61658 316.08094 395.35352 322.22852 C 395.09045 328.74144 394.78672 335.25359 394.43164 341.76758 C 394.10253 347.91623 393.7343 354.07872 393.32617 360.24023 C 392.90505 366.75315 392.44477 373.26556 391.93164 379.76562 C 391.11537 390.34336 390.19425 400.93204 389.16797 411.50977 C 387.5885 427.88367 375.21445 441.30171 358.85352 444.19336 C 344.8093 446.68111 330.76491 448.65992 316.7207 450.11914 C 302.18931 451.64372 287.64661 452.62035 273.11523 453.03711 C 261.70382 453.37567 250.29099 453.37567 238.89258 453.03711 C 224.3612 452.62035 209.81654 451.64265 195.28516 450.11914 C 181.24095 448.65992 167.19656 446.68111 153.15234 444.19336 C 136.79141 441.30171 124.41863 427.88367 122.82617 411.50977 C 121.79989 400.91918 120.87876 390.34335 120.0625 379.76562 C 119.56235 373.2527 119.10081 366.74029 118.67969 360.24023 C 118.27156 354.07872 117.90333 347.91623 117.57422 341.76758 C 117.21914 335.25466 116.91541 328.72858 116.65234 322.22852 C 116.38928 316.07987 116.16646 309.91711 115.98242 303.76953 C 115.79838 297.25661 115.64056 290.74445 115.52148 284.23047 C 115.41647 278.08182 115.33688 271.93381 115.29688 265.78516 C 115.28388 262.52816 115.27148 259.27261 115.27148 256.01562 C 115.27148 252.75862 115.28387 249.50309 115.29688 246.24609 C 115.33587 240.09745 115.41539 233.93469 115.52148 227.78711 C 115.63948 221.2742 115.78431 214.76204 115.98242 208.24805 C 116.16646 202.09941 116.38928 195.9386 116.65234 189.79102 C 116.90242 183.27809 117.22041 176.76398 117.5625 170.25 C 117.8916 164.10135 118.25789 157.94055 118.66602 151.79297 C 119.08714 145.28006 119.54936 138.7805 120.0625 132.26758 C 120.86576 121.677 121.79989 111.10035 122.82617 100.50977 C 124.41863 84.123001 136.79141 70.706103 153.15234 67.814453 C 155.86419 67.332333 158.5616 66.877144 161.27344 66.433594 C 165.2086 65.795054 169.14493 65.181424 173.08008 64.621094 C 175.6999 64.242894 178.31836 63.892106 180.95117 63.566406 C 188.53243 62.576446 196.11493 61.743516 203.69727 61.066406 C 207.3174 60.740706 210.92197 60.454779 214.54102 60.193359 C 217.50293 59.984439 220.45214 59.789237 223.41406 59.632812 C 230.98233 59.203193 238.5626 58.915608 246.13086 58.798828 C 249.42297 58.732428 252.71289 58.707031 256.00391 58.707031 z " /><g
     id="g569"
     transform="translate(-71.50639,0.60089249)"><path
       style="fill:url(#linearGradient52);stroke:none;stroke-width:15.4162;stroke-dasharray:none"
       d="m 468.21599,245.6458 c 0.026,6.51292 0.026,13.02584 0,19.53983 -0.039,6.14865 -0.118,12.29623 -0.22409,18.44488 -0.118,6.51291 -0.27605,13.02583 -0.46118,19.53982 -0.18403,6.14865 -0.40813,12.31015 -0.67119,18.45773 -0.26307,6.51292 -0.56619,13.02583 -0.92127,19.53982 -0.32911,6.14865 -0.69718,12.31015 -1.10531,18.47166 -0.42112,6.51292 -0.8823,13.02584 -1.39543,19.5259 -0.81627,10.57773 -1.73754,21.16725 -2.76382,31.74498 -1.57947,16.3739 -13.95219,29.79079 -30.31312,32.68244 -14.04422,2.48775 -28.08845,4.46765 -42.13266,5.92687 -14.53139,1.52458 -29.07575,2.50061 -43.60713,2.91737 -11.41141,0.33856 -22.82389,0.33856 -34.2223,0 -14.53138,-0.41676 -29.07575,-1.39386 -43.60713,-2.91737 -14.04421,-1.45922 -28.08844,-3.43912 -42.13266,-5.92687 -16.36093,-2.89165 -28.73365,-16.30854 -30.32611,-32.68244 -1.02628,-10.59059 -1.94755,-21.16725 -2.76381,-31.74498 -0.50015,-6.51292 -0.96133,-13.02584 -1.38245,-19.5259 -0.40813,-6.16151 -0.7762,-12.32301 -1.10531,-18.47166 -0.35508,-6.51292 -0.6582,-13.03976 -0.92127,-19.53982 -0.26306,-6.14865 -0.48715,-12.31015 -0.67119,-18.45773 -0.18404,-6.51292 -0.3421,-13.02584 -0.46118,-19.53982 -0.10501,-6.14865 -0.18404,-12.29623 -0.22409,-18.44488 -0.013,-3.257 -0.026,-6.51292 -0.026,-9.76991 0,-3.257 0.013,-6.51292 0.026,-9.76992 0.039,-6.14864 0.118,-12.31015 0.22409,-18.45773 0.118,-6.51291 0.26307,-13.02583 0.46118,-19.53982 0.18404,-6.14864 0.40813,-12.31015 0.67119,-18.45773 0.25008,-6.51293 0.56619,-13.02585 0.90828,-19.53983 0.3291,-6.14865 0.69718,-12.31015 1.10531,-18.45773 0.42112,-6.51291 0.8823,-13.01298 1.39544,-19.5259 0.80326,-10.59058 1.73753,-21.16725 2.76381,-31.757834 1.59246,-16.386758 13.96518,-29.803647 30.32611,-32.695301 2.71185,-0.482121 5.40962,-0.937457 8.12146,-1.381008 3.93516,-0.638543 7.8714,-1.250301 11.80655,-1.810633 2.61982,-0.378197 5.23857,-0.729609 7.87138,-1.055309 7.58126,-0.989954 15.16252,-1.823488 22.74486,-2.5006 3.62013,-0.325699 7.22618,-0.611758 10.84523,-0.873174 2.96191,-0.20892 5.90976,-0.403911 8.87168,-0.560332 7.56827,-0.429623 15.14953,-0.716753 22.71779,-0.833534 3.29211,-0.06643 6.58205,-0.09214 9.87307,-0.09214 3.29103,0 6.58096,0.02571 9.87199,0.09107 7.56826,0.11678 15.14952,0.40391 22.71779,0.833534 2.96192,0.156421 5.90977,0.351412 8.87169,0.560331 3.62012,0.260345 7.22617,0.547475 10.84522,0.873175 7.58126,0.677112 15.16252,1.510645 22.74486,2.5006 2.63281,0.3257 5.25156,0.677112 7.87138,1.055309 3.93516,0.560332 7.8714,1.17209 11.80655,1.810632 2.71184,0.44248 5.40961,0.898888 8.12146,1.381009 16.36092,2.891654 28.73366,16.308543 30.31313,32.695291 1.02628,10.590594 1.94755,21.167254 2.76381,31.757844 0.51314,6.51292 0.97431,13.02583 1.39544,19.5259 0.40813,6.1615 0.7762,12.31015 1.1053,18.45773 0.35509,6.51291 0.65821,13.02583 0.92127,19.53983 0.26307,6.14865 0.48716,12.29623 0.6712,18.45773 0.19702,6.51292 0.34209,13.02584 0.46117,19.53982 0.10393,6.14865 0.18296,12.31016 0.22301,18.4588 z"
       id="status_indicator"
       inkscape:label="status_indicator" /><path
       style="fill:none;stroke:url(#linearGradient1);stroke-width:15.4162;stroke-dasharray:none"
       d="m 468.21599,245.6458 c 0.026,6.51292 0.026,13.02584 0,19.53983 -0.039,6.14865 -0.118,12.29623 -0.22409,18.44488 -0.118,6.51291 -0.27605,13.02583 -0.46118,19.53982 -0.18403,6.14865 -0.40813,12.31015 -0.67119,18.45773 -0.26307,6.51292 -0.56619,13.02583 -0.92127,19.53982 -0.32911,6.14865 -0.69718,12.31015 -1.10531,18.47166 -0.42112,6.51292 -0.8823,13.02584 -1.39543,19.5259 -0.81627,10.57773 -1.73754,21.16725 -2.76382,31.74498 -1.57947,16.3739 -13.95219,29.79079 -30.31312,32.68244 -14.04422,2.48775 -28.08845,4.46765 -42.13266,5.92687 -14.53139,1.52458 -29.07575,2.50061 -43.60713,2.91737 -11.41141,0.33856 -22.82389,0.33856 -34.2223,0 -14.53138,-0.41676 -29.07575,-1.39386 -43.60713,-2.91737 -14.04421,-1.45922 -28.08844,-3.43912 -42.13266,-5.92687 -16.36093,-2.89165 -28.73365,-16.30854 -30.32611,-32.68244 -1.02628,-10.59059 -1.94755,-21.16725 -2.76381,-31.74498 -0.50015,-6.51292 -0.96133,-13.02584 -1.38245,-19.5259 -0.40813,-6.16151 -0.7762,-12.32301 -1.10531,-18.47166 -0.35508,-6.51292 -0.6582,-13.03976 -0.92127,-19.53982 -0.26306,-6.14865 -0.48715,-12.31015 -0.67119,-18.45773 -0.18404,-6.51292 -0.3421,-13.02584 -0.46118,-19.53982 -0.10501,-6.14865 -0.18404,-12.29623 -0.22409,-18.44488 -0.013,-3.257 -0.026,-6.51292 -0.026,-9.76991 0,-3.257 0.013,-6.51292 0.026,-9.76992 0.039,-6.14864 0.118,-12.31015 0.22409,-18.45773 0.118,-6.51291 0.26307,-13.02583 0.46118,-19.53982 0.18404,-6.14864 0.40813,-12.31015 0.67119,-18.45773 0.25008,-6.51293 0.56619,-13.02585 0.90828,-19.53983 0.3291,-6.14865 0.69718,-12.31015 1.10531,-18.45773 0.42112,-6.51291 0.8823,-13.01298 1.39544,-19.5259 0.80326,-10.59058 1.73753,-21.16725 2.76381,-31.757834 1.59246,-16.386758 13.96518,-29.803647 30.32611,-32.695301 2.71185,-0.482121 5.40962,-0.937457 8.12146,-1.381008 3.93516,-0.638543 7.8714,-1.250301 11.80655,-1.810633 2.61982,-0.378197 5.23857,-0.729609 7.87138,-1.055309 7.58126,-0.989954 15.16252,-1.823488 22.74486,-2.5006 3.62013,-0.325699 7.22618,-0.611758 10.84523,-0.873174 2.96191,-0.20892 5.90976,-0.403911 8.87168,-0.560332 7.56827,-0.429623 15.14953,-0.716753 22.71779,-0.833534 3.29211,-0.06643 6.58205,-0.09214 9.87307,-0.09214 3.29103,0 6.58096,0.02571 9.87199,0.09107 7.56826,0.11678 15.14952,0.40391 22.71779,0.833534 2.96192,0.156421 5.90977,0.351412 8.87169,0.560331 3.62012,0.260345 7.22617,0.547475 10.84522,0.873175 7.58126,0.677112 15.16252,1.510645 22.74486,2.5006 2.63281,0.3257 5.25156,0.677112 7.87138,1.055309 3.93516,0.560332 7.8714,1.17209 11.80655,1.810632 2.71184,0.44248 5.40961,0.898888 8.12146,1.381009 16.36092,2.891654 28.73366,16.308543 30.31313,32.695291 1.02628,10.590594 1.94755,21.167254 2.76381,31.757844 0.51314,6.51292 0.97431,13.02583 1.39544,19.5259 0.40813,6.1615 0.7762,12.31015 1.1053,18.45773 0.35509,6.51291 0.65821,13.02583 0.92127,19.53983 0.26307,6.14865 0.48716,12.29623 0.6712,18.45773 0.19702,6.51292 0.34209,13.02584 0.46117,19.53982 0.10393,6.14865 0.18296,12.31016 0.22301,18.4588 z"
       id="path32" /><path
       id="rect1"
       style="fill:#666666;stroke:url(#linearGradient2);stroke-width:0.672826"
       d="m 309.51436,319.83231 h 40.90243 v 97.75624 h -40.90243 z" /><g
       id="g2"
       style="stroke:url(#linearGradient5)"
       transform="matrix(0.67282599,0,0,0.67282599,155.26361,83.155652)">
	<path
   style="fill:#f2f2f2;stroke:url(#linearGradient3)"
   d="m 240.197,361.978 v 105.036 h -55.223 l 9.8,-70.64 5.143,-37.107 v -0.012 c 13.422,1.422 26.857,2.334 40.28,2.723 z"
   id="path1" />
	<path
   style="fill:#f2f2f2;stroke:url(#linearGradient4)"
   d="M 327.02,467.014 H 271.809 V 361.978 c 13.423,-0.389 26.858,-1.301 40.281,-2.723 v 0.012 l 5.143,37.107 z"
   id="path2" />
</g><path
       id="polygon2"
       style="fill:#cccccc;stroke:url(#linearGradient6);stroke-width:0.672826"
       d="m 259.04702,397.37481 h 20.6719 37.15547 21.26938 37.1474 20.67997 l 5.16193,30.26775 H 253.8851 Z" /><g
       id="g3"
       style="stroke:url(#linearGradient9)"
       transform="matrix(0.67282599,0,0,0.67282599,155.26361,83.155652)">
	<path
   id="polygon3"
   style="opacity:0.25;fill:#4d4d4d;stroke:url(#linearGradient7);enable-background:new"
   d="m 365.428,512 -7.672,-44.986 H 327.02 304.26 L 311.931,512 Z" />
	<path
   style="opacity:0.25;fill:#4d4d4d;stroke:url(#linearGradient8);enable-background:new"
   d="m 312.09,359.267 v -0.012 c -13.423,1.423 -26.858,2.334 -40.281,2.723 v 0 c -10.541,0.316 -21.083,0.316 -31.612,0 v 0 c -13.423,-0.389 -26.858,-1.301 -40.281,-2.723 v 0.012 l -5.143,37.107 c 1.714,0.207 3.429,0.389 5.143,0.571 13.423,1.423 26.858,2.334 40.281,2.723 v 67.345 h 31.612 v -67.345 c 13.423,-0.389 26.858,-1.301 40.281,-2.723 1.714,-0.182 3.429,-0.365 5.143,-0.571 z"
   id="path3" />
</g><path
       style="fill:#cccccc;stroke:url(#linearGradient10);stroke-width:0.672826"
       d="m 414.95829,200.92981 c 0.0161,4.09011 0.0161,8.18022 0,12.271 -0.0242,3.86135 -0.0733,7.72202 -0.13927,11.58337 -0.0733,4.09011 -0.17157,8.18022 -0.28662,12.271 -0.11438,3.86135 -0.25366,7.73077 -0.41716,11.59145 -0.16349,4.09011 -0.35188,8.18022 -0.57257,12.271 -0.20454,3.86135 -0.4333,7.73077 -0.68696,11.60019 -0.26173,4.09011 -0.54835,8.18022 -0.86727,12.26225 -0.50731,6.64282 -1.07989,13.29303 -1.71772,19.93584 -0.98166,10.2828 -8.67139,18.7086 -18.8398,20.52456 -8.72858,1.5623 -17.45715,2.80568 -26.18572,3.72207 -9.03134,0.95743 -18.07076,1.57037 -27.1021,1.8321 -7.09226,0.21262 -14.18519,0.21262 -21.26938,0 -9.03134,-0.26173 -18.07076,-0.87534 -27.1021,-1.8321 -8.72857,-0.91639 -17.45715,-2.15977 -26.18572,-3.72207 -10.16842,-1.81596 -17.85814,-10.24176 -18.84787,-20.52456 -0.63784,-6.65089 -1.21042,-13.29302 -1.71773,-19.93584 -0.31084,-4.0901 -0.59747,-8.18021 -0.85919,-12.26225 -0.25366,-3.86942 -0.48242,-7.73884 -0.68696,-11.60019 -0.22069,-4.09011 -0.40908,-8.18897 -0.57258,-12.271 -0.16349,-3.86135 -0.30277,-7.73077 -0.41715,-11.59145 -0.11438,-4.09011 -0.21261,-8.18022 -0.28662,-12.271 -0.0653,-3.86135 -0.11438,-7.72202 -0.13928,-11.58337 -0.008,-2.04539 -0.0161,-4.09011 -0.0161,-6.1355 0,-2.04539 0.008,-4.09011 0.0161,-6.1355 0.0242,-3.86135 0.0733,-7.73077 0.13928,-11.59145 0.0733,-4.09011 0.1635,-8.18022 0.28662,-12.271 0.11438,-3.86135 0.25366,-7.73077 0.41715,-11.59144 0.15543,-4.09011 0.35189,-8.18022 0.56451,-12.271 0.20453,-3.86135 0.4333,-7.73078 0.68695,-11.59145 0.26173,-4.09011 0.54835,-8.17215 0.86727,-12.26225 0.49924,-6.65089 1.07989,-13.29303 1.71773,-19.94391 0.98973,-10.29088 8.67945,-18.71668 18.84787,-20.532637 1.68543,-0.302772 3.36211,-0.588723 5.04754,-0.867273 2.44573,-0.401004 4.89212,-0.785188 7.33784,-1.137076 1.62824,-0.237507 3.25581,-0.458194 4.89212,-0.662733 4.7118,-0.621692 9.4236,-1.14515 14.13608,-1.570376 2.24993,-0.204539 4.49111,-0.384184 6.74037,-0.548353 1.84085,-0.131201 3.67295,-0.253656 5.51381,-0.351888 4.70372,-0.269804 9.41552,-0.450121 14.11925,-0.523459 2.04606,-0.04171 4.09078,-0.05786 6.13617,-0.05786 2.04539,0 4.09011,0.01615 6.1355,0.05719 4.70373,0.07334 9.41553,0.253656 14.11926,0.523459 1.84085,0.09823 3.67295,0.220687 5.5138,0.351888 2.24993,0.163497 4.49112,0.343814 6.74038,0.548353 4.7118,0.425226 9.4236,0.948685 14.13607,1.570376 1.63631,0.204539 3.26388,0.425226 4.89212,0.662733 2.44572,0.351888 4.89211,0.736072 7.33784,1.137076 1.68543,0.277878 3.36211,0.564501 5.04754,0.867273 10.16842,1.815957 17.85815,10.241757 18.8398,20.532627 0.63784,6.65089 1.21041,13.29303 1.71772,19.94391 0.31892,4.09011 0.60555,8.18022 0.86728,12.26226 0.25365,3.86942 0.48241,7.73077 0.68695,11.59144 0.22069,4.09011 0.40908,8.18022 0.57258,12.271 0.16349,3.86135 0.30277,7.72203 0.41715,11.59145 0.12245,4.09011 0.21261,8.18022 0.28662,12.271 0.0646,3.86135 0.11371,7.73077 0.1386,11.59212 z"
       id="path4" /><g
       id="g32"
       style="stroke:url(#linearGradient40)"
       transform="matrix(0.67282599,0,0,0.67282599,155.26361,83.155652)">
	<path
   style="opacity:0.25;fill:#4d4d4d;stroke:url(#linearGradient11);enable-background:new"
   d="M 379.009,39.016 C 377.55,23.721 366.121,11.198 351.008,8.499 344.868,7.405 338.728,6.408 332.6,5.52 319.834,3.684 307.067,2.298 294.301,1.386 281.536,0.462 268.769,0 256.003,0 c -10.538,0 -21.074,0.333 -31.612,0.963 2.229,0.133 4.458,0.263 6.687,0.423 12.766,0.912 25.533,2.298 38.299,4.134 6.128,0.888 12.268,1.885 18.408,2.979 15.113,2.699 26.542,15.222 28.001,30.517 9.313,96.756 9.313,193.512 0,290.28 -1.459,15.283 -12.888,27.806 -28.001,30.505 -12.973,2.322 -25.946,4.17 -38.919,5.532 -8.156,0.864 -16.315,1.516 -24.475,2.001 5.269,0.312 10.539,0.57 15.806,0.722 10.529,0.316 21.07,0.316 31.612,0 13.423,-0.389 26.858,-1.301 40.281,-2.723 12.973,-1.362 25.946,-3.21 38.919,-5.532 15.113,-2.699 26.542,-15.222 28.001,-30.505 9.312,-96.768 9.312,-193.524 -10e-4,-290.28 z"
   id="path5" />
	<g
   style="opacity:0.25;stroke:url(#linearGradient38)"
   id="g31">
		<path
   style="fill:#4d4d4d;stroke:url(#linearGradient12)"
   d="m 178.725,77.777 c 0,5.034 -4.085,9.119 -9.119,9.119 h -40.293 c -0.061,0 -0.109,0 -0.17,-0.012 0.389,-6.079 0.815,-12.146 1.289,-18.225 h 39.174 c 5.033,-0.001 9.119,4.072 9.119,9.118 z"
   id="path6" />
		<path
   style="fill:#4d4d4d;stroke:url(#linearGradient13)"
   d="m 382.851,86.884 c -0.049,0.012 -0.109,0.012 -0.158,0.012 H 342.4 c -5.034,0 -9.119,-4.085 -9.119,-9.119 0,-5.046 4.085,-9.119 9.119,-9.119 h 39.162 c 0.474,6.079 0.9,12.159 1.289,18.226 z"
   id="path7" />
		<path
   style="fill:#4d4d4d;stroke:url(#linearGradient14)"
   d="M 308.961,86.891 H 203.05 c -5.036,0 -9.119,-4.083 -9.119,-9.119 0,-5.036 4.083,-9.119 9.119,-9.119 h 105.911 c 5.036,0 9.119,4.083 9.119,9.119 0,5.036 -4.083,9.119 -9.119,9.119 z"
   id="path8" />
		<path
   style="fill:#4d4d4d;stroke:url(#linearGradient15)"
   d="m 178.725,113.231 c 0,5.034 -4.085,9.119 -9.119,9.119 h -42.323 c 0.231,-6.079 0.523,-12.158 0.839,-18.238 h 41.484 c 5.033,0 9.119,4.085 9.119,9.119 z"
   id="path9" />
		<path
   style="fill:#4d4d4d;stroke:url(#linearGradient16)"
   d="M 384.723,122.349 H 342.4 c -5.034,0 -9.119,-4.085 -9.119,-9.119 0,-5.034 4.085,-9.119 9.119,-9.119 h 41.472 c 0.329,6.08 0.608,12.159 0.851,18.238 z"
   id="path10" />
		<path
   style="fill:#4d4d4d;stroke:url(#linearGradient17)"
   d="M 308.961,122.352 H 203.05 c -5.036,0 -9.119,-4.083 -9.119,-9.119 0,-5.036 4.083,-9.119 9.119,-9.119 h 105.911 c 5.036,0 9.119,4.083 9.119,9.119 0,5.036 -4.083,9.119 -9.119,9.119 z"
   id="path11" />
		<path
   style="fill:#4d4d4d;stroke:url(#linearGradient18)"
   d="m 178.725,148.697 c 0,5.034 -4.085,9.119 -9.119,9.119 h -43.369 c 0.109,-6.079 0.243,-12.158 0.426,-18.238 h 42.943 c 5.033,0 9.119,4.085 9.119,9.119 z"
   id="path12" />
		<path
   style="fill:#4d4d4d;stroke:url(#linearGradient19)"
   d="M 385.769,157.815 H 342.4 c -5.034,0 -9.119,-4.085 -9.119,-9.119 0,-5.034 4.085,-9.119 9.119,-9.119 h 42.943 c 0.183,6.08 0.317,12.159 0.426,18.238 z"
   id="path13" />
		<path
   style="fill:#4d4d4d;stroke:url(#linearGradient20)"
   d="M 308.961,157.814 H 203.05 c -5.036,0 -9.119,-4.083 -9.119,-9.119 0,-5.036 4.083,-9.119 9.119,-9.119 h 105.911 c 5.036,0 9.119,4.083 9.119,9.119 0,5.036 -4.083,9.119 -9.119,9.119 z"
   id="path14" />
		<path
   style="fill:#4d4d4d;stroke:url(#linearGradient21)"
   d="m 178.725,184.162 c 0,5.034 -4.085,9.119 -9.119,9.119 H 126.03 c -0.012,-3.04 -0.024,-6.079 -0.024,-9.119 0,-3.04 0.012,-6.079 0.024,-9.119 h 43.575 c 5.034,0.001 9.12,4.074 9.12,9.119 z"
   id="path15" />
		<path
   style="fill:#4d4d4d;stroke:url(#linearGradient22)"
   d="m 385.976,175.044 c 0.024,6.079 0.024,12.158 0,18.238 H 342.4 c -5.034,0 -9.119,-4.085 -9.119,-9.119 0,-5.046 4.085,-9.119 9.119,-9.119 z"
   id="path16" />
		<path
   style="fill:#4d4d4d;stroke:url(#linearGradient23)"
   d="M 308.961,193.276 H 203.05 c -5.036,0 -9.119,-4.083 -9.119,-9.119 0,-5.036 4.083,-9.119 9.119,-9.119 h 105.911 c 5.036,0 9.119,4.083 9.119,9.119 0,5.036 -4.083,9.119 -9.119,9.119 z"
   id="path17" />
		<path
   style="fill:#4d4d4d;stroke:url(#linearGradient24)"
   d="m 178.725,219.616 c 0,5.034 -4.085,9.119 -9.119,9.119 h -42.943 c -0.17,-6.079 -0.316,-12.158 -0.426,-18.238 h 43.369 c 5.033,0 9.119,4.086 9.119,9.119 z"
   id="path18" />
		<path
   style="fill:#4d4d4d;stroke:url(#linearGradient25)"
   d="m 385.769,210.497 c -0.109,6.079 -0.255,12.158 -0.426,18.238 H 342.4 c -5.034,0 -9.119,-4.085 -9.119,-9.119 0,-5.034 4.085,-9.119 9.119,-9.119 z"
   id="path19" />
		<path
   style="fill:#4d4d4d;stroke:url(#linearGradient26)"
   d="M 308.961,228.737 H 203.05 c -5.036,0 -9.119,-4.083 -9.119,-9.119 0,-5.036 4.083,-9.119 9.119,-9.119 h 105.911 c 5.036,0 9.119,4.083 9.119,9.119 0,5.037 -4.083,9.119 -9.119,9.119 z"
   id="path20" />
		<path
   style="fill:#4d4d4d;stroke:url(#linearGradient27)"
   d="m 178.725,255.082 c 0,5.034 -4.085,9.119 -9.119,9.119 h -41.472 c -0.328,-6.079 -0.608,-12.17 -0.851,-18.238 h 42.323 c 5.033,0 9.119,4.086 9.119,9.119 z"
   id="path21" />
		<path
   style="fill:#4d4d4d;stroke:url(#linearGradient28)"
   d="m 384.723,245.963 c -0.243,6.079 -0.523,12.158 -0.851,18.238 H 342.4 c -5.034,0 -9.119,-4.085 -9.119,-9.119 0,-5.034 4.085,-9.119 9.119,-9.119 z"
   id="path22" />
		<path
   style="fill:#4d4d4d;stroke:url(#linearGradient29)"
   d="M 308.961,264.2 H 203.05 c -5.036,0 -9.119,-4.083 -9.119,-9.119 0,-5.036 4.083,-9.119 9.119,-9.119 h 105.911 c 5.036,0 9.119,4.083 9.119,9.119 0,5.036 -4.083,9.119 -9.119,9.119 z"
   id="path23" />
		<path
   style="fill:#4d4d4d;stroke:url(#linearGradient30)"
   d="m 178.725,290.548 c 0,5.034 -4.085,9.119 -9.119,9.119 h -39.174 c -0.462,-6.079 -0.888,-12.158 -1.277,-18.225 0.049,-0.012 0.109,-0.012 0.158,-0.012 h 40.293 c 5.033,-0.001 9.119,4.072 9.119,9.118 z"
   id="path24" />
		<path
   style="fill:#4d4d4d;stroke:url(#linearGradient31)"
   d="m 382.851,281.441 c -0.389,6.079 -0.815,12.158 -1.289,18.225 H 342.4 c -5.034,0 -9.119,-4.085 -9.119,-9.119 0,-5.046 4.085,-9.119 9.119,-9.119 h 40.281 c 0.061,10e-4 0.109,10e-4 0.17,0.013 z"
   id="path25" />
		<path
   style="fill:#4d4d4d;stroke:url(#linearGradient32)"
   d="M 308.961,299.662 H 203.05 c -5.036,0 -9.119,-4.083 -9.119,-9.119 0,-5.036 4.083,-9.119 9.119,-9.119 h 105.911 c 5.036,0 9.119,4.083 9.119,9.119 0,5.036 -4.083,9.119 -9.119,9.119 z"
   id="path26" />
		<path
   style="fill:#4d4d4d;stroke:url(#linearGradient33)"
   d="m 186.737,5.52 v 18.93 c 0,5.034 -4.085,9.119 -9.119,9.119 -5.034,0 -9.119,-4.085 -9.119,-9.119 V 7.21 c 3.635,-0.596 7.271,-1.167 10.906,-1.69 2.42,-0.353 4.839,-0.681 7.271,-0.985 0.049,0.328 0.061,0.657 0.061,0.985 z"
   id="path27" />
		<path
   style="fill:#4d4d4d;stroke:url(#linearGradient34)"
   d="M 225.923,1.386 V 24.45 c 0,5.034 -4.073,9.119 -9.119,9.119 -5.034,0 -9.119,-4.085 -9.119,-9.119 V 2.201 c 3.344,-0.304 6.675,-0.571 10.018,-0.815 2.736,-0.195 5.459,-0.377 8.195,-0.523 0.025,0.17 0.025,0.341 0.025,0.523 z"
   id="path28" />
		<path
   style="fill:#4d4d4d;stroke:url(#linearGradient35)"
   d="M 265.122,0.085 V 24.45 c 0,5.034 -4.085,9.119 -9.119,9.119 -5.034,0 -9.119,-4.085 -9.119,-9.119 V 0.085 C 249.924,0.024 252.963,0 256.003,0 c 3.04,0 6.079,0.024 9.119,0.085 z"
   id="path29" />
		<path
   style="fill:#4d4d4d;stroke:url(#linearGradient36)"
   d="m 304.32,2.201 v 22.25 c 0,5.034 -4.085,9.119 -9.119,9.119 -5.034,0 -9.119,-4.085 -9.119,-9.119 V 1.386 c 0,-0.182 0,-0.353 0.024,-0.523 2.736,0.146 5.459,0.328 8.195,0.523 3.344,0.243 6.676,0.511 10.019,0.815 z"
   id="path30" />
		<path
   style="fill:#4d4d4d;stroke:url(#linearGradient37)"
   d="m 343.507,7.21 v 17.24 c 0,5.034 -4.073,9.119 -9.119,9.119 -5.034,0 -9.119,-4.085 -9.119,-9.119 V 5.52 c 0,-0.328 0.012,-0.657 0.061,-0.985 2.432,0.304 4.851,0.632 7.271,0.985 3.635,0.523 7.27,1.094 10.906,1.69 z"
   id="path31" />
	</g>
</g></g></g></svg>
