<?xml version="1.0" encoding="UTF-8" standalone="no"?>
<!-- Uploaded to: SVG Repo, www.svgrepo.com, Generator: SVG Repo Mixer Tools -->

<svg
   version="1.1"
   id="Layer_1"
   viewBox="0 0 512 512"
   xml:space="preserve"
   sodipodi:docname="syllablaze.svg"
   inkscape:version="1.4.3 (0d15f75042, 2025-12-25)"
   xmlns:inkscape="http://www.inkscape.org/namespaces/inkscape"
   xmlns:sodipodi="http://sodipodi.sourceforge.net/DTD/sodipodi-0.dtd"
   xmlns:xlink="http://www.w3.org/1999/xlink"
   xmlns="http://www.w3.org/2000/svg"
   xmlns:svg="http://www.w3.org/2000/svg"><defs
   id="defs32"><linearGradient
   id="linearGradient41"
   inkscape:collect="always"><stop
     style="stop-color:#d7d7d7;stop-opacity:1;"
     offset="0"
     id="stop1" /><stop
     style="stop-color:#939393;stop-opacity:1;"
     offset="1"
     id="stop2" /></linearGradient><linearGradient
   id="linearGradient45"
   inkscape:collect="always"><stop
     style="stop-color:#a0a0ff;stop-opacity:1;"
     offset="0"
     id="stop44" /><stop
     style="stop-color:#6464ff;stop-opacity:1;"
     offset="1"
     id="stop45" /></linearGradient><linearGradient
   id="linearGradient39"
   inkscape:collect="always"><stop
     style="stop-color:#cccccc;stop-opacity:1;"
     offset="0"
     id="stop40" /><stop
     style="stop-color:#939393;stop-opacity:1;"
     offset="1"
     id="stop41" /></linearGradient><linearGradient
   inkscape:collect="always"
   xlink:href="#linearGradient41"
   id="linearGradient1"
   gradientUnits="userSpaceOnUse"
   x1="107.15179"
   y1="46.515999"
   x2="396.57977"
   y2="442.88339"
   gradientTransform="matrix(0.77080899,0,0,0.77080899,58.6729,58.672897)" /><linearGradient
   inkscape:collect="always"
   xlink:href="#linearGradient39"
   id="linearGradient2"
   gradientUnits="userSpaceOnUse"
   x1="119.83018"
   y1="119.83015"
   x2="392.16989"
   y2="392.16986"
   gradientTransform="matrix(0.51467257,0,0,0.51467257,119.93608,150.8786)" /><linearGradient
   inkscape:collect="always"
   xlink:href="#linearGradient39"
   id="linearGradient6"
   gradientUnits="userSpaceOnUse"
   x1="119.83018"
   y1="119.83015"
   x2="392.16989"
   y2="392.16986"
   gradientTransform="matrix(0.67282599,0,0,0.67282599,83.75722,77.756544)" /><linearGradient
   inkscape:collect="always"
   xlink:href="#linearGradient39"
   id="linearGradient7"
   gradientUnits="userSpaceOnUse"
   x1="119.83018"
   y1="119.83015"
   x2="392.16989"
   y2="392.16986"
   gradientTransform="matrix(0.67282599,0,0,0.67282599,83.75722,77.756544)" /><linearGradient
   inkscape:collect="always"
   xlink:href="#linearGradient39"
   id="linearGradient10"
   gradientUnits="userSpaceOnUse"
   x1="119.83018"
   y1="119.83015"
   x2="392.16989"
   y2="392.16986"
   gradientTransform="matrix(0.67282599,0,0,0.67282599,83.75722,83.756544)" /><linearGradient
   inkscape:collect="always"
   xlink:href="#linearGradient39"
   id="linearGradient11"
   gradientUnits="userSpaceOnUse"
   x1="119.83018"
   y1="119.83015"
   x2="392.16989"
   y2="392.16986"
   gradientTransform="matrix(0.67282599,0,0,0.67282599,83.75722,83.756544)" /><linearGradient
   inkscape:collect="always"
   xlink:href="#linearGradient39"
   id="linearGradient12"
   gradientUnits="userSpaceOnUse"
   x1="119.83018"
   y1="119.83015"
   x2="392.16989"
   y2="392.16986" /><linearGradient
   inkscape:collect="always"
   xlink:href="#linearGradient39"
   id="linearGradient13"
   gradientUnits="userSpaceOnUse"
   x1="119.83018"
   y1="119.83015"
   x2="392.16989"
   y2="392.16986" /><linearGradient
   inkscape:collect="always"
   xlink:href="#linearGradient39"
   id="linearGradient14"
   gradientUnits="userSpaceOnUse"
   x1="119.83018"
   y1="119.83015"
   x2="392.16989"
   y2="392.16986" /><linearGradient
   inkscape:collect="always"
   xlink:href="#linearGradient39"
   id="linearGradient15"
   gradientUnits="userSpaceOnUse"
   x1="119.83018"
   y1="119.83015"
   x2="392.16989"
   y2="392.16986" /><linearGradient
   inkscape:collect="always"
   xlink:href="#linearGradient39"
   id="linearGradient16"
   gradientUnits="userSpaceOnUse"
   x1="119.83018"
   y1="119.83015"
   x2="392.16989"
   y2="392.16986" /><linearGradient
   inkscape:collect="always"
   xlink:href="#linearGradient39"
   id="linearGradient17"
   gradientUnits="userSpaceOnUse"
   x1="119.83018"
   y1="119.83015"
   x2="392.16989"
   y2="392.16986" /><linearGradient
   inkscape:collect="always"
   xlink:href="#linearGradient39"
   id="linearGradient18"
   gradientUnits="userSpaceOnUse"
   x1="119.83018"
   y1="119.83015"
   x2="392.16989"
   y2="392.16986" /><linearGradient
   inkscape:collect="always"
   xlink:href="#linearGradient39"
   id="linearGradient19"
   gradientUnits="userSpaceOnUse"
   x1="119.83018"
   y1="119.83015"
   x2="392.16989"
   y2="392.16986" /><linearGradient
   inkscape:collect="always"
   xlink:href="#linearGradient39"
   id="linearGradient20"
   gradientUnits="userSpaceOnUse"
   x1="119.83018"
   y1="119.83015"
   x2="392.16989"
   y2="392.16986" /><linearGradient
   inkscape:collect="always"
   xlink:href="#linearGradient39"
   id="linearGradient21"
   gradientUnits="userSpaceOnUse"
   x1="119.83018"
   y1="119.83015"
   x2="392.16989"
   y2="392.16986" /><linearGradient
   inkscape:collect="always"
   xlink:href="#linearGradient39"
   id="linearGradient22"
   gradientUnits="userSpaceOnUse"
   x1="119.83018"
   y1="119.83015"
   x2="392.16989"
   y2="392.16986" /><linearGradient
   inkscape:collect="always"
   xlink:href="#linearGradient39"
   id="linearGradient23"
   gradientUnits="userSpaceOnUse"
   x1="119.83018"
   y1="119.83015"
   x2="392.16989"
   y2="392.16986" /><linearGradient
   inkscape:collect="always"
   xlink:href="#linearGradient39"
   id="linearGradient24"
   gradientUnits="userSpaceOnUse"
   x1="119.83018"
   y1="119.83015"
   x2="392.16989"
   y2="392.16986" /><linearGradient
   inkscape:collect="always"
   xlink:href="#linearGradient39"
   id="linearGradient25"
   gradientUnits="userSpaceOnUse"
   x1="119.83018"
   y1="119.83015"
   x2="392.16989"
   y2="392.16986" /><linearGradient
   inkscape:collect="always"
   xlink:href="#linearGradient39"
   id="linearGradient26"
   gradientUnits="userSpaceOnUse"
   x1="119.83018"
   y1="119.83015"
   x2="392.16989"
   y2="392.16986" /><linearGradient
   inkscape:collect="always"
   xlink:href="#linearGradient39"
   id="linearGradient27"
   gradientUnits="userSpaceOnUse"
   x1="119.83018"
   y1="119.83015"
   x2="392.16989"
   y2="392.16986" /><linearGradient
   inkscape:collect="always"
   xlink:href="#linearGradient39"
   id="linearGradient28"
   gradientUnits="userSpaceOnUse"
   x1="119.83018"
   y1="119.83015"
   x2="392.16989"
   y2="392.16986" /><linearGradient
   inkscape:collect="always"
   xlink:href="#linearGradient39"
   id="linearGradient29"
   gradientUnits="userSpaceOnUse"
   x1="119.83018"
   y1="119.83015"
   x2="392.16989"
   y2="392.16986" /><linearGradient
   inkscape:collect="always"
   xlink:href="#linearGradient39"
   id="linearGradient30"
   gradientUnits="userSpaceOnUse"
   x1="119.83018"
   y1="119.83015"
   x2="392.16989"
   y2="392.16986" /><linearGradient
   inkscape:collect="always"
   xlink:href="#linearGradient39"
   id="linearGradient31"
   gradientUnits="userSpaceOnUse"
   x1="119.83018"
   y1="119.83015"
   x2="392.16989"
   y2="392.16986" /><linearGradient
   inkscape:collect="always"
   xlink:href="#linearGradient39"
   id="linearGradient32"
   gradientUnits="userSpaceOnUse"
   x1="119.83018"
   y1="119.83015"
   x2="392.16989"
   y2="392.16986" /><linearGradient
   inkscape:collect="always"
   xlink:href="#linearGradient39"
   id="linearGradient33"
   gradientUnits="userSpaceOnUse"
   x1="119.83018"
   y1="119.83015"
   x2="392.16989"
   y2="392.16986" /><linearGradient
   inkscape:collect="always"
   xlink:href="#linearGradient39"
   id="linearGradient34"
   gradientUnits="userSpaceOnUse"
   x1="119.83018"
   y1="119.83015"
   x2="392.16989"
   y2="392.16986" /><linearGradient
   inkscape:collect="always"
   xlink:href="#linearGradient39"
   id="linearGradient35"
   gradientUnits="userSpaceOnUse"
   x1="119.83018"
   y1="119.83015"
   x2="392.16989"
   y2="392.16986" /><linearGradient
   inkscape:collect="always"
   xlink:href="#linearGradient39"
   id="linearGradient36"
   gradientUnits="userSpaceOnUse"
   x1="119.83018"
   y1="119.83015"
   x2="392.16989"
   y2="392.16986" /><linearGradient
   inkscape:collect="always"
   xlink:href="#linearGradient39"
   id="linearGradient37"
   gradientUnits="userSpaceOnUse"
   x1="119.83018"
   y1="119.83015"
   x2="392.16989"
   y2="392.16986" /><linearGradient
   inkscape:collect="always"
   xlink:href="#linearGradient39"
   id="linearGradient38"
   gradientUnits="userSpaceOnUse"
   x1="119.83018"
   y1="119.83015"
   x2="392.16989"
   y2="392.16986" /><linearGradient
   inkscape:collect="always"
   xlink:href="#linearGradient45"
   id="linearGradient52"
   x1="189.20285"
   y1="156.57426"
   x2="357.63864"
   y2="399.61493"
   gradientUnits="userSpaceOnUse" />
	
	

	
	
</defs><sodipodi:namedview
   id="namedview32"
   pagecolor="#ffffff"
   bordercolor="#111111"
   borderopacity="1"
   inkscape:showpageshadow="0"
   inkscape:pageopacity="0"
   inkscape:pagecheckerboard="1"
   inkscape:deskcolor="#d1d1d1"
   inkscape:zoom="1.1767578"
   inkscape:cx="134.69212"
   inkscape:cy="268.10955"
   inkscape:window-width="2560"
   inkscape:window-height="1408"
   inkscape:window-x="0"
   inkscape:window-y="0"
   inkscape:window-maximized="1"
   inkscape:current-layer="g570" />






<g
   id="g570"><path
     id="waveform"
     style="fill:#ff0000;fill-opacity:0;stroke:none;stroke-width:1.04803;stroke-dasharray:none;stroke-opacity:1"
     inkscape:label="waveform"
     d="m 256.0055,0.52407825 c -4.72256,0 -9.44387,0.03312 -14.16797,0.11914 -10.86033,0.151219 -21.73924,0.52375305 -32.59961,1.08007805 -4.25029,0.202552 -8.48016,0.45603 -12.73047,0.726563 -5.19326,0.338513 -10.36765,0.707152 -15.5625,1.128906 -10.88052,0.876802 -21.75969,1.956374 -32.63867,3.238281 -3.77805,0.421752 -7.53552,0.877456 -11.29492,1.367188 -5.64688,0.72558 -11.29451,1.516892 -16.94141,2.3437497 -3.89143,0.574361 -7.76284,1.164758 -11.65429,1.789062 -23.47767,3.744443 -41.23241,21.118462 -43.51758,42.337892 -1.47269,13.713898 -2.81412,27.409157 -3.9668,41.123047 -0.73634,8.433685 -1.39764,16.851495 -2.00195,25.285155 -0.58566,7.96057 -1.11369,15.9384 -1.58594,23.90038 -0.4909,8.43504 -0.94584,16.86904 -1.30469,25.30273 -0.3775,7.96059 -0.6988,15.93845 -0.96289,23.9004 -0.28429,8.43505 -0.49278,16.86908 -0.66211,25.30273 -0.15225,7.96058 -0.26441,15.94037 -0.32031,23.90234 -0.0187,4.21753 -0.0371,8.43286 -0.0371,12.65039 0,4.21753 0.0185,8.43284 0.0371,12.6504 0.0575,7.96197 0.16962,15.92279 0.32031,23.88476 0.17088,8.43504 0.39801,16.86906 0.66211,25.30274 0.26409,7.96058 0.58539,15.94036 0.96289,23.90234 0.37749,8.41701 0.81273,16.86711 1.32227,25.30078 0.47225,7.96198 1.00027,15.94129 1.58594,23.91992 0.6043,8.41701 1.26667,16.85148 1.98437,25.28516 1.17132,13.69723 2.49411,27.39157 3.9668,41.10547 2.28517,21.2028 20.03991,38.57782 43.51758,42.32226 20.15322,3.2214 40.30575,5.78426 60.45898,7.67383 20.85228,1.97279 41.72391,3.23767 62.57617,3.77734 16.35656,0.43841 32.73224,0.43841 49.10742,0 20.85229,-0.53967 41.72387,-1.80316 62.57618,-3.77734 20.15321,-1.88957 40.30575,-4.45243 60.45898,-7.67383 23.47766,-3.74444 41.23349,-21.11946 43.5,-42.32226 1.47269,-13.69723 2.79351,-27.40824 3.96484,-41.10547 0.73632,-8.41703 1.39766,-16.85149 2.00196,-25.28516 0.58567,-7.97863 1.11367,-15.95794 1.58593,-23.91992 0.50953,-8.43505 0.94476,-16.86712 1.32227,-25.30078 0.37748,-7.9606 0.6988,-15.94037 0.96289,-23.90234 0.26564,-8.43506 0.49278,-16.86909 0.66211,-25.30274 0.15224,-7.96197 0.26627,-15.92279 0.32227,-23.88476 0.0374,-8.43506 0.0374,-16.86713 0,-25.30079 -0.0575,-7.96197 -0.17119,-15.94232 -0.32032,-23.90429 -0.17088,-8.43504 -0.37937,-16.86711 -0.66211,-25.30078 -0.26408,-7.97861 -0.58539,-15.94036 -0.96289,-23.90235 -0.37749,-8.43506 -0.81271,-16.86908 -1.32226,-25.30273 -0.47225,-7.96058 -1.00029,-15.92178 -1.58594,-23.90038 -0.60431,-8.41703 -1.26559,-16.85148 -2.00195,-25.285158 -1.17131,-13.713899 -2.4941,-27.409149 -3.9668,-41.123047 C 444.82687,33.433554 427.073,16.059535 403.59534,12.315093 399.7039,11.69079 395.83252,11.100957 391.94105,10.527984 386.29418,9.7011263 380.64652,8.9078613 374.99964,8.1822813 c -3.7594,-0.489735 -7.51884,-0.943481 -11.29688,-1.365235 -10.88053,-1.281906 -21.75969,-2.361479 -32.63867,-3.238281 -5.19327,-0.421753 -10.36769,-0.793735 -15.5625,-1.130859 -4.25031,-0.270532 -8.48016,-0.524011 -12.73047,-0.726563 -10.86035,-0.556326 -21.73928,-0.92690405 -32.5996,-1.07812505 -4.72258,-0.08462 -9.44345,-0.11914 -14.16602,-0.11914 z m -0.002,58.18359375 c 3.29103,0 6.58201,0.0264 9.87304,0.0918 7.56826,0.11678 15.14853,0.402411 22.7168,0.832031 2.96192,0.156424 5.90917,0.351627 8.87109,0.560547 3.62012,0.26035 7.22666,0.547347 10.84571,0.873047 7.58126,0.67711 15.16375,1.511993 22.74609,2.501953 2.63281,0.3257 5.25127,0.676488 7.87109,1.054688 3.93516,0.56033 7.87149,1.172007 11.80665,1.810547 2.71184,0.44248 5.40924,0.898738 8.12109,1.380859 16.36092,2.891649 28.73303,16.308565 30.3125,32.695306 1.02628,10.59059 1.94741,21.16722 2.76367,31.7578 0.51314,6.51293 0.97535,13.02533 1.39648,19.5254 0.40813,6.1615 0.77637,12.3114 1.10547,18.45898 0.35509,6.51291 0.65687,13.02506 0.91993,19.53906 0.26307,6.14865 0.48783,12.29553 0.67187,18.45703 0.19702,6.51292 0.34186,13.02704 0.46094,19.54102 0.10393,6.14865 0.18255,12.31034 0.22265,18.45898 0.026,6.51292 0.026,13.02508 0,19.53907 -0.039,6.14865 -0.11656,12.29666 -0.22265,18.44531 -0.118,6.51291 -0.27776,13.02507 -0.46289,19.53906 -0.18403,6.14865 -0.40686,12.31141 -0.66992,18.45899 -0.26307,6.51292 -0.5668,13.02507 -0.92188,19.53906 -0.32911,6.14865 -0.69734,12.31114 -1.10547,18.47265 -0.42112,6.51292 -0.8814,13.02533 -1.39453,19.52539 -0.81627,10.57774 -1.73739,21.16642 -2.76367,31.74415 -1.57947,16.3739 -13.95352,29.79194 -30.31445,32.68359 -14.04422,2.48775 -28.08861,4.46656 -42.13282,5.92578 -14.53139,1.52458 -29.07409,2.50121 -43.60547,2.91797 -11.41141,0.33856 -22.82424,0.33856 -34.22265,0 -14.53138,-0.41676 -29.07604,-1.39446 -43.60742,-2.91797 -14.04421,-1.45922 -28.0886,-3.43803 -42.13282,-5.92578 -16.36093,-2.89165 -28.73371,-16.30969 -30.32617,-32.68359 -1.02628,-10.59059 -1.94741,-21.16642 -2.76367,-31.74415 -0.50015,-6.51292 -0.96169,-13.02533 -1.38281,-19.52539 -0.40813,-6.16151 -0.77636,-12.324 -1.10547,-18.47265 -0.35508,-6.51292 -0.65881,-13.039 -0.92188,-19.53906 -0.26306,-6.14865 -0.48588,-12.31141 -0.66992,-18.45899 -0.18404,-6.51292 -0.34186,-13.02508 -0.46094,-19.53906 -0.10501,-6.14865 -0.1846,-12.29666 -0.2246,-18.44531 -0.013,-3.257 -0.0254,-6.51255 -0.0254,-9.76954 0,-3.257 0.0124,-6.51253 0.0254,-9.76953 0.039,-6.14864 0.11851,-12.3114 0.2246,-18.45898 0.118,-6.51291 0.26283,-13.02507 0.46094,-19.53906 0.18404,-6.14864 0.40686,-12.30945 0.66992,-18.45703 0.25008,-6.51293 0.56807,-13.02704 0.91016,-19.54102 0.3291,-6.14865 0.69539,-12.30945 1.10352,-18.45703 0.42112,-6.51291 0.88334,-13.01247 1.39648,-19.52539 0.80326,-10.59057 1.73739,-21.16722 2.76367,-31.7578 1.59246,-16.386765 13.96524,-29.803663 30.32617,-32.695313 2.71185,-0.48212 5.40926,-0.937309 8.1211,-1.380859 3.93516,-0.63854 7.87149,-1.25217 11.80664,-1.8125 2.61982,-0.3782 5.23828,-0.728988 7.87109,-1.054688 7.58126,-0.98996 15.16376,-1.82289 22.7461,-2.5 3.62013,-0.3257 7.2247,-0.611627 10.84375,-0.873047 2.96191,-0.20892 5.91112,-0.404122 8.87304,-0.560547 7.56827,-0.429619 15.14854,-0.717204 22.7168,-0.833984 3.29211,-0.0664 6.58203,-0.0918 9.87305,-0.0918 z" /><path
     style="fill:#ff0000;fill-opacity:0;stroke:none;stroke-width:16.1391;stroke-dasharray:none"
     d="m 404.41644,245.86561 c 0.0274,6.76738 0.0274,13.53475 0,20.30324 -0.0411,6.38888 -0.12446,12.77664 -0.23636,19.16552 -0.12447,6.76736 -0.29117,13.53474 -0.48644,20.30323 -0.19411,6.38887 -0.43048,12.7911 -0.70795,19.17886 -0.27749,6.76738 -0.5972,13.53475 -0.97173,20.30324 -0.34714,6.38887 -0.73537,12.7911 -1.16586,19.19334 -0.44418,6.76737 -0.93062,13.53475 -1.47185,20.28877 -0.86098,10.99099 -1.83271,21.99424 -2.9152,32.98524 -1.66597,17.01362 -14.71637,30.9547 -31.97341,33.95933 -14.81344,2.58494 -29.62689,4.6422 -44.44032,6.15843 -15.3273,1.58414 -30.66827,2.5983 -45.99554,3.03135 -12.03643,0.35178 -24.07399,0.35178 -36.0967,0 -15.32729,-0.43305 -30.66827,-1.44832 -45.99555,-3.03135 -14.81344,-1.51623 -29.62689,-3.57349 -44.44033,-6.15843 -17.25703,-3.00463 -30.30742,-16.94571 -31.98711,-33.95933 -1.08248,-11.00436 -2.05422,-21.99425 -2.91519,-32.98524 -0.52754,-6.76738 -1.01398,-13.53476 -1.45816,-20.28877 -0.43049,-6.40224 -0.81872,-12.80447 -1.16585,-19.19334 -0.37453,-6.76738 -0.69425,-13.54922 -0.97173,-20.30324 -0.27747,-6.38887 -0.51383,-12.7911 -0.70795,-19.17886 -0.19412,-6.76738 -0.36084,-13.53475 -0.48644,-20.30323 -0.11076,-6.38888 -0.19412,-12.77664 -0.23636,-19.16552 -0.0137,-3.38425 -0.0274,-6.76737 -0.0274,-10.15161 0,-3.38425 0.0137,-6.76738 0.0274,-10.15163 0.0411,-6.38886 0.12446,-12.7911 0.23636,-19.17886 0.12446,-6.76737 0.27748,-13.53475 0.48644,-20.30324 0.19412,-6.38886 0.43048,-12.7911 0.70795,-19.17886 0.26377,-6.76739 0.5972,-13.53477 0.95803,-20.30325 0.34713,-6.38887 0.73537,-12.7911 1.16584,-19.17886 0.4442,-6.76737 0.93063,-13.52139 1.47187,-20.28877 0.84726,-11.00435 1.83271,-21.99424 2.91519,-32.998594 1.67969,-17.02698 14.73008,-30.968062 31.98711,-33.972688 2.86038,-0.500956 5.70591,-0.974086 8.56628,-1.434965 4.1507,-0.663488 8.30253,-1.299149 12.45322,-1.881371 2.7633,-0.392976 5.52549,-0.758115 8.3025,-1.09654 7.9965,-1.028627 15.99299,-1.894733 23.99063,-2.598297 3.81841,-0.338425 7.62197,-0.635662 11.43923,-0.907285 3.12414,-0.217082 6.23345,-0.419701 9.3576,-0.582232 7.98279,-0.446405 15.97929,-0.744753 23.96207,-0.866096 3.47243,-0.06899 6.94256,-0.0957 10.41383,-0.0957 3.47128,0 6.94141,0.0267 10.4127,0.09466 7.98278,0.121343 15.97927,0.419691 23.96206,0.866096 3.12415,0.162531 6.23347,0.36515 9.35761,0.582222 3.8184,0.270522 7.62196,0.56887 11.43922,0.907295 7.9965,0.703564 15.993,1.56966 23.99064,2.598297 2.77701,0.338425 5.53919,0.703564 8.3025,1.09654 4.15069,0.582222 8.30253,1.217883 12.4532,1.881371 2.86038,0.459767 5.70591,0.934009 8.5663,1.434965 17.25702,3.004626 30.30743,16.945708 31.97341,33.972678 1.08249,11.004364 2.05422,21.994244 2.91519,32.998604 0.54125,6.76738 1.02767,13.53474 1.47187,20.28877 0.43048,6.40223 0.81871,12.7911 1.16584,19.17887 0.37453,6.76736 0.69426,13.53474 0.97172,20.30324 0.27748,6.38887 0.51385,12.77664 0.70797,19.17886 0.20781,6.76738 0.36082,13.53476 0.48643,20.30324 0.10962,6.38887 0.19298,12.79111 0.23522,19.17997 z"
     id="active_area"
     inkscape:label="active_area" /><path
     style="fill:url(#linearGradient52);stroke:none;stroke-width:15.4162;stroke-dasharray:none"
     d="m 396.7096,246.24669 c 0.026,6.51292 0.026,13.02584 0,19.53983 -0.039,6.14865 -0.118,12.29623 -0.22409,18.44488 -0.118,6.51291 -0.27605,13.02583 -0.46118,19.53982 -0.18403,6.14865 -0.40813,12.31015 -0.67119,18.45773 -0.26307,6.51292 -0.56619,13.02583 -0.92127,19.53982 -0.32911,6.14865 -0.69718,12.31015 -1.10531,18.47166 -0.42112,6.51292 -0.8823,13.02584 -1.39543,19.5259 -0.81627,10.57773 -1.73754,21.16725 -2.76382,31.74498 -1.57947,16.3739 -13.95219,29.79079 -30.31312,32.68244 -14.04422,2.48775 -28.08845,4.46765 -42.13266,5.92687 -14.53139,1.52458 -29.07575,2.50061 -43.60713,2.91737 -11.41141,0.33856 -22.82389,0.33856 -34.2223,0 -14.53138,-0.41676 -29.07575,-1.39386 -43.60713,-2.91737 -14.04421,-1.45922 -28.08844,-3.43912 -42.13266,-5.92687 -16.36093,-2.89165 -28.73365,-16.30854 -30.32611,-32.68244 -1.02628,-10.59059 -1.94755,-21.16725 -2.76381,-31.74498 -0.50015,-6.51292 -0.96133,-13.02584 -1.38245,-19.5259 -0.40813,-6.16151 -0.7762,-12.32301 -1.10531,-18.47166 -0.35508,-6.51292 -0.6582,-13.03976 -0.92127,-19.53982 -0.26306,-6.14865 -0.48715,-12.31015 -0.67119,-18.45773 -0.18404,-6.51292 -0.3421,-13.02584 -0.46118,-19.53982 -0.10501,-6.14865 -0.18404,-12.29623 -0.22409,-18.44488 -0.013,-3.257 -0.026,-6.51292 -0.026,-9.76991 0,-3.257 0.013,-6.51292 0.026,-9.76992 0.039,-6.14864 0.118,-12.31015 0.22409,-18.45773 0.118,-6.51291 0.26307,-13.02583 0.46118,-19.53982 0.18404,-6.14864 0.40813,-12.31015 0.67119,-18.45773 0.25008,-6.51293 0.56619,-13.02585 0.90828,-19.53983 0.3291,-6.14865 0.69718,-12.31015 1.10531,-18.45773 0.42112,-6.51291 0.8823,-13.01298 1.39544,-19.5259 0.80326,-10.59058 1.73753,-21.16725 2.76381,-31.75783 1.59246,-16.386761 13.96518,-29.80365 30.32611,-32.695304 2.71185,-0.482121 5.40962,-0.937457 8.12146,-1.381008 3.93516,-0.638543 7.8714,-1.250301 11.80655,-1.810633 2.61982,-0.378197 5.23857,-0.729609 7.87138,-1.055309 7.58126,-0.989954 15.16252,-1.823488 22.74486,-2.5006 3.62013,-0.325699 7.22618,-0.611758 10.84523,-0.873174 2.96191,-0.20892 5.90976,-0.403911 8.87168,-0.560332 7.56827,-0.429623 15.14953,-0.716753 22.71779,-0.833534 3.29211,-0.06643 6.58205,-0.09214 9.87307,-0.09214 3.29103,0 6.58096,0.02571 9.87199,0.09107 7.56826,0.11678 15.14952,0.40391 22.71779,0.833534 2.96192,0.156421 5.90977,0.351412 8.87169,0.560331 3.62012,0.260345 7.22617,0.547475 10.84522,0.873175 7.58126,0.677112 15.16252,1.510645 22.74486,2.5006 2.63281,0.3257 5.25156,0.677112 7.87138,1.055309 3.93516,0.560332 7.8714,1.17209 11.80655,1.810632 2.71184,0.44248 5.40961,0.898888 8.12146,1.381009 16.36092,2.891654 28.73366,16.308543 30.31313,32.695294 1.02628,10.59059 1.94755,21.16725 2.76381,31.75784 0.51314,6.51292 0.97431,13.02583 1.39544,19.5259 0.40813,6.1615 0.7762,12.31015 1.1053,18.45773 0.35509,6.51291 0.65821,13.02583 0.92127,19.53983 0.26307,6.14865 0.48716,12.29623 0.6712,18.45773 0.19702,6.51292 0.34209,13.02584 0.46117,19.53982 0.10393,6.14865 0.18296,12.31016 0.22301,18.4588 z"
     id="background"
     inkscape:label="background" /><path
     style="fill:none;stroke:url(#linearGradient1);stroke-width:15.4162;stroke-dasharray:none"
     d="m 396.7096,246.24669 c 0.026,6.51292 0.026,13.02584 0,19.53983 -0.039,6.14865 -0.118,12.29623 -0.22409,18.44488 -0.118,6.51291 -0.27605,13.02583 -0.46118,19.53982 -0.18403,6.14865 -0.40813,12.31015 -0.67119,18.45773 -0.26307,6.51292 -0.56619,13.02583 -0.92127,19.53982 -0.32911,6.14865 -0.69718,12.31015 -1.10531,18.47166 -0.42112,6.51292 -0.8823,13.02584 -1.39543,19.5259 -0.81627,10.57773 -1.73754,21.16725 -2.76382,31.74498 -1.57947,16.3739 -13.95219,29.79079 -30.31312,32.68244 -14.04422,2.48775 -28.08845,4.46765 -42.13266,5.92687 -14.53139,1.52458 -29.07575,2.50061 -43.60713,2.91737 -11.41141,0.33856 -22.82389,0.33856 -34.2223,0 -14.53138,-0.41676 -29.07575,-1.39386 -43.60713,-2.91737 -14.04421,-1.45922 -28.08844,-3.43912 -42.13266,-5.92687 -16.36093,-2.89165 -28.73365,-16.30854 -30.32611,-32.68244 -1.02628,-10.59059 -1.94755,-21.16725 -2.76381,-31.74498 -0.50015,-6.51292 -0.96133,-13.02584 -1.38245,-19.5259 -0.40813,-6.16151 -0.7762,-12.32301 -1.10531,-18.47166 -0.35508,-6.51292 -0.6582,-13.03976 -0.92127,-19.53982 -0.26306,-6.14865 -0.48715,-12.31015 -0.67119,-18.45773 -0.18404,-6.51292 -0.3421,-13.02584 -0.46118,-19.53982 -0.10501,-6.14865 -0.18404,-12.29623 -0.22409,-18.44488 -0.013,-3.257 -0.026,-6.51292 -0.026,-9.76991 0,-3.257 0.013,-6.51292 0.026,-9.76992 0.039,-6.14864 0.118,-12.31015 0.22409,-18.45773 0.118,-6.51291 0.26307,-13.02583 0.46118,-19.53982 0.18404,-6.14864 0.40813,-12.31015 0.67119,-18.45773 0.25008,-6.51293 0.56619,-13.02585 0.90828,-19.53983 0.3291,-6.14865 0.69718,-12.31015 1.10531,-18.45773 0.42112,-6.51291 0.8823,-13.01298 1.39544,-19.5259 0.80326,-10.59058 1.73753,-21.16725 2.76381,-31.75783 1.59246,-16.38676 13.96518,-29.803649 30.32611,-32.695303 2.71185,-0.482121 5.40962,-0.937457 8.12146,-1.381008 3.93516,-0.638543 7.8714,-1.250301 11.80655,-1.810633 2.61982,-0.378197 5.23857,-0.729609 7.87138,-1.055309 7.58126,-0.989954 15.16252,-1.823488 22.74486,-2.5006 3.62013,-0.325699 7.22618,-0.611758 10.84523,-0.873174 2.96191,-0.20892 5.90976,-0.403911 8.87168,-0.560332 7.56827,-0.429623 15.14953,-0.716753 22.71779,-0.833534 3.29211,-0.06643 6.58205,-0.09214 9.87307,-0.09214 3.29103,0 6.58096,0.02571 9.87199,0.09107 7.56826,0.11678 15.14952,0.40391 22.71779,0.833534 2.96192,0.156421 5.90977,0.351412 8.87169,0.560331 3.62012,0.260345 7.22617,0.547475 10.84522,0.873175 7.58126,0.677112 15.16252,1.510645 22.74486,2.5006 2.63281,0.3257 5.25156,0.677112 7.87138,1.055309 3.93516,0.560332 7.8714,1.17209 11.80655,1.810632 2.71184,0.44248 5.40961,0.898888 8.12146,1.381009 16.36092,2.891654 28.73366,16.308543 30.31313,32.695293 1.02628,10.59059 1.94755,21.16725 2.76381,31.75784 0.51314,6.51292 0.97431,13.02583 1.39544,19.5259 0.40813,6.1615 0.7762,12.31015 1.1053,18.45773 0.35509,6.51291 0.65821,13.02583 0.92127,19.53983 0.26307,6.14865 0.48716,12.29623 0.6712,18.45773 0.19702,6.51292 0.34209,13.02584 0.46117,19.53982 0.10393,6.14865 0.18296,12.31016 0.22301,18.4588 z"
     id="path32" /><g
     id="g3"
     transform="translate(-2.259138e-5,-2.999997)"><path
       id="rect1"
       style="fill:#939393;fill-opacity:1;stroke:url(#linearGradient2);stroke-width:0.514673"
       d="m 237.92889,331.92241 h 31.28797 v 74.77782 h -31.28797 z" /><g
       id="g2"><path
         id="polygon2"
         style="fill:#cccccc;stroke:url(#linearGradient6);stroke-width:0.672826"
         d="m 187.54063,391.9757 h 20.6719 37.15547 21.26938 37.1474 20.67997 l 5.16193,30.26775 H 182.37871 Z" /><path
         id="polygon3"
         style="opacity:0.25;fill:#4d4d4d;stroke:url(#linearGradient7);stroke-width:0.672826;enable-background:new"
         d="m 329.62668,422.24345 -5.16193,-30.26775 h -20.67997 -15.31352 l 5.16124,30.26775 z" /></g><g
       id="g1"
       transform="translate(0,12)"><path
         style="fill:#cccccc;stroke:url(#linearGradient10);stroke-width:0.672826"
         d="m 343.4519,201.5307 c 0.0161,4.09011 0.0161,8.18022 0,12.271 -0.0242,3.86135 -0.0733,7.72202 -0.13927,11.58337 -0.0733,4.09011 -0.17157,8.18022 -0.28662,12.271 -0.11438,3.86135 -0.25366,7.73077 -0.41716,11.59145 -0.16349,4.09011 -0.35188,8.18022 -0.57257,12.271 -0.20454,3.86135 -0.4333,7.73077 -0.68696,11.60019 -0.26173,4.09011 -0.54835,8.18022 -0.86727,12.26225 -0.50731,6.64282 -1.07989,13.29303 -1.71772,19.93584 -0.98166,10.2828 -8.67139,18.7086 -18.8398,20.52456 -8.72858,1.5623 -17.45715,2.80568 -26.18572,3.72207 -9.03134,0.95743 -18.07076,1.57037 -27.1021,1.8321 -7.09226,0.21262 -14.18519,0.21262 -21.26938,0 -9.03134,-0.26173 -18.07076,-0.87534 -27.1021,-1.8321 -8.72857,-0.91639 -17.45715,-2.15977 -26.18572,-3.72207 -10.16842,-1.81596 -17.85814,-10.24176 -18.84787,-20.52456 -0.63784,-6.65089 -1.21042,-13.29302 -1.71773,-19.93584 -0.31084,-4.0901 -0.59747,-8.18021 -0.85919,-12.26225 -0.25366,-3.86942 -0.48242,-7.73884 -0.68696,-11.60019 -0.22069,-4.09011 -0.40908,-8.18897 -0.57258,-12.271 -0.16349,-3.86135 -0.30277,-7.73077 -0.41715,-11.59145 -0.11438,-4.09011 -0.21261,-8.18022 -0.28662,-12.271 -0.0653,-3.86135 -0.11438,-7.72202 -0.13928,-11.58337 -0.008,-2.04539 -0.0161,-4.09011 -0.0161,-6.1355 0,-2.04539 0.008,-4.09011 0.0161,-6.1355 0.0242,-3.86135 0.0733,-7.73077 0.13928,-11.59145 0.0733,-4.09011 0.1635,-8.18022 0.28662,-12.271 0.11438,-3.86135 0.25366,-7.73077 0.41715,-11.59144 0.15543,-4.09011 0.35189,-8.18022 0.56451,-12.271 0.20453,-3.86135 0.4333,-7.73078 0.68695,-11.59145 0.26173,-4.09011 0.54835,-8.17215 0.86727,-12.26225 0.49924,-6.65089 1.07989,-13.29303 1.71773,-19.94391 0.98973,-10.290878 8.67945,-18.716678 18.84787,-20.532635 1.68543,-0.302772 3.36211,-0.588723 5.04754,-0.867273 2.44573,-0.401004 4.89212,-0.785188 7.33784,-1.137076 1.62824,-0.237507 3.25581,-0.458194 4.89212,-0.662733 4.7118,-0.621692 9.4236,-1.14515 14.13608,-1.570376 2.24993,-0.204539 4.49111,-0.384184 6.74037,-0.548353 1.84085,-0.131201 3.67295,-0.253656 5.51381,-0.351888 4.70372,-0.269804 9.41552,-0.450121 14.11925,-0.523459 2.04606,-0.04171 4.09078,-0.05786 6.13617,-0.05786 2.04539,0 4.09011,0.01615 6.1355,0.05719 4.70373,0.07334 9.41553,0.253656 14.11926,0.523459 1.84085,0.09823 3.67295,0.220687 5.5138,0.351888 2.24993,0.163497 4.49112,0.343814 6.74038,0.548353 4.7118,0.425226 9.4236,0.948685 14.13607,1.570376 1.63631,0.204539 3.26388,0.425226 4.89212,0.662733 2.44572,0.351888 4.89211,0.736072 7.33784,1.137076 1.68543,0.277878 3.36211,0.564501 5.04754,0.867273 10.16842,1.815957 17.85815,10.241757 18.8398,20.532625 0.63784,6.65089 1.21041,13.29303 1.71772,19.94391 0.31892,4.09011 0.60555,8.18022 0.86728,12.26226 0.25365,3.86942 0.48241,7.73077 0.68695,11.59144 0.22069,4.09011 0.40908,8.18022 0.57258,12.271 0.16349,3.86135 0.30277,7.72203 0.41715,11.59145 0.12245,4.09011 0.21261,8.18022 0.28662,12.271 0.0646,3.86135 0.11371,7.73077 0.1386,11.59212 z"
         id="path4" /><path
         style="opacity:0.25;fill:#4d4d4d;stroke:url(#linearGradient11);stroke-width:0.672826;enable-background:new"
         d="m 338.76433,110.00752 c -0.98166,-10.290871 -8.67139,-18.716671 -18.8398,-20.532628 -4.13116,-0.736072 -8.26231,-1.406879 -12.38539,-2.004349 -8.58929,-1.235308 -17.17926,-2.167845 -25.76856,-2.781462 -8.58862,-0.621691 -17.17859,-0.932537 -25.76789,-0.932537 -7.09024,0 -14.17913,0.224051 -21.26937,0.647931 1.49973,0.08949 2.99945,0.176954 4.49918,0.284606 8.5893,0.613617 17.17927,1.546154 25.76857,2.781462 4.12307,0.59747 8.25423,1.268277 12.38538,2.004349 10.16842,1.815957 17.85814,10.241757 18.8398,20.532628 6.26603,65.09995 6.26603,130.19991 0,195.30793 -0.98166,10.2828 -8.67138,18.7086 -18.8398,20.52456 -8.72857,1.5623 -17.45715,2.80568 -26.18572,3.72207 -5.48757,0.58132 -10.97715,1.02001 -16.46741,1.34633 3.54512,0.20992 7.09091,0.38351 10.63468,0.48578 7.08419,0.21261 14.17645,0.21261 21.26938,0 9.03134,-0.26173 18.07076,-0.87535 27.1021,-1.83211 8.72857,-0.91639 17.45715,-2.15977 26.18572,-3.72207 10.16842,-1.81596 17.85815,-10.24176 18.8398,-20.52456 6.26535,-65.10802 6.26535,-130.20798 -6.7e-4,-195.30793 z"
         id="path5" /><g
         style="opacity:0.25;stroke:url(#linearGradient38)"
         id="g31"
         transform="matrix(0.67282599,0,0,0.67282599,83.75722,83.756544)">
		<path
   style="fill:#4d4d4d;stroke:url(#linearGradient12)"
   d="m 178.725,77.777 c 0,5.034 -4.085,9.119 -9.119,9.119 h -40.293 c -0.061,0 -0.109,0 -0.17,-0.012 0.389,-6.079 0.815,-12.146 1.289,-18.225 h 39.174 c 5.033,-0.001 9.119,4.072 9.119,9.118 z"
   id="path6" />
		<path
   style="fill:#4d4d4d;stroke:url(#linearGradient13)"
   d="m 382.851,86.884 c -0.049,0.012 -0.109,0.012 -0.158,0.012 H 342.4 c -5.034,0 -9.119,-4.085 -9.119,-9.119 0,-5.046 4.085,-9.119 9.119,-9.119 h 39.162 c 0.474,6.079 0.9,12.159 1.289,18.226 z"
   id="path7" />
		<path
   style="fill:#4d4d4d;stroke:url(#linearGradient14)"
   d="M 308.961,86.891 H 203.05 c -5.036,0 -9.119,-4.083 -9.119,-9.119 0,-5.036 4.083,-9.119 9.119,-9.119 h 105.911 c 5.036,0 9.119,4.083 9.119,9.119 0,5.036 -4.083,9.119 -9.119,9.119 z"
   id="path8" />
		<path
   style="fill:#4d4d4d;stroke:url(#linearGradient15)"
   d="m 178.725,113.231 c 0,5.034 -4.085,9.119 -9.119,9.119 h -42.323 c 0.231,-6.079 0.523,-12.158 0.839,-18.238 h 41.484 c 5.033,0 9.119,4.085 9.119,9.119 z"
   id="path9" />
		<path
   style="fill:#4d4d4d;stroke:url(#linearGradient16)"
   d="M 384.723,122.349 H 342.4 c -5.034,0 -9.119,-4.085 -9.119,-9.119 0,-5.034 4.085,-9.119 9.119,-9.119 h 41.472 c 0.329,6.08 0.608,12.159 0.851,18.238 z"
   id="path10" />
		<path
   style="fill:#4d4d4d;stroke:url(#linearGradient17)"
   d="M 308.961,122.352 H 203.05 c -5.036,0 -9.119,-4.083 -9.119,-9.119 0,-5.036 4.083,-9.119 9.119,-9.119 h 105.911 c 5.036,0 9.119,4.083 9.119,9.119 0,5.036 -4.083,9.119 -9.119,9.119 z"
   id="path11" />
		<path
   style="fill:#4d4d4d;stroke:url(#linearGradient18)"
   d="m 178.725,148.697 c 0,5.034 -4.085,9.119 -9.119,9.119 h -43.369 c 0.109,-6.079 0.243,-12.158 0.426,-18.238 h 42.943 c 5.033,0 9.119,4.085 9.119,9.119 z"
   id="path12" />
		<path
   style="fill:#4d4d4d;stroke:url(#linearGradient19)"
   d="M 385.769,157.815 H 342.4 c -5.034,0 -9.119,-4.085 -9.119,-9.119 0,-5.034 4.085,-9.119 9.119,-9.119 h 42.943 c 0.183,6.08 0.317,12.159 0.426,18.238 z"
   id="path13" />
		<path
   style="fill:#4d4d4d;stroke:url(#linearGradient20)"
   d="M 308.961,157.814 H 203.05 c -5.036,0 -9.119,-4.083 -9.119,-9.119 0,-5.036 4.083,-9.119 9.119,-9.119 h 105.911 c 5.036,0 9.119,4.083 9.119,9.119 0,5.036 -4.083,9.119 -9.119,9.119 z"
   id="path14" />
		<path
   style="fill:#4d4d4d;stroke:url(#linearGradient21)"
   d="m 178.725,184.162 c 0,5.034 -4.085,9.119 -9.119,9.119 H 126.03 c -0.012,-3.04 -0.024,-6.079 -0.024,-9.119 0,-3.04 0.012,-6.079 0.024,-9.119 h 43.575 c 5.034,0.001 9.12,4.074 9.12,9.119 z"
   id="path15" />
		<path
   style="fill:#4d4d4d;stroke:url(#linearGradient22)"
   d="m 385.976,175.044 c 0.024,6.079 0.024,12.158 0,18.238 H 342.4 c -5.034,0 -9.119,-4.085 -9.119,-9.119 0,-5.046 4.085,-9.119 9.119,-9.119 z"
   id="path16" />
		<path
   style="fill:#4d4d4d;stroke:url(#linearGradient23)"
   d="M 308.961,193.276 H 203.05 c -5.036,0 -9.119,-4.083 -9.119,-9.119 0,-5.036 4.083,-9.119 9.119,-9.119 h 105.911 c 5.036,0 9.119,4.083 9.119,9.119 0,5.036 -4.083,9.119 -9.119,9.119 z"
   id="path17" />
		<path
   style="fill:#4d4d4d;stroke:url(#linearGradient24)"
   d="m 178.725,219.616 c 0,5.034 -4.085,9.119 -9.119,9.119 h -42.943 c -0.17,-6.079 -0.316,-12.158 -0.426,-18.238 h 43.369 c 5.033,0 9.119,4.086 9.119,9.119 z"
   id="path18" />
		<path
   style="fill:#4d4d4d;stroke:url(#linearGradient25)"
   d="m 385.769,210.497 c -0.109,6.079 -0.255,12.158 -0.426,18.238 H 342.4 c -5.034,0 -9.119,-4.085 -9.119,-9.119 0,-5.034 4.085,-9.119 9.119,-9.119 z"
   id="path19" />
		<path
   style="fill:#4d4d4d;stroke:url(#linearGradient26)"
   d="M 308.961,228.737 H 203.05 c -5.036,0 -9.119,-4.083 -9.119,-9.119 0,-5.036 4.083,-9.119 9.119,-9.119 h 105.911 c 5.036,0 9.119,4.083 9.119,9.119 0,5.037 -4.083,9.119 -9.119,9.119 z"
   id="path20" />
		<path
   style="fill:#4d4d4d;stroke:url(#linearGradient27)"
   d="m 178.725,255.082 c 0,5.034 -4.085,9.119 -9.119,9.119 h -41.472 c -0.328,-6.079 -0.608,-12.17 -0.851,-18.238 h 42.323 c 5.033,0 9.119,4.086 9.119,9.119 z"
   id="path21" />
		<path
   style="fill:#4d4d4d;stroke:url(#linearGradient28)"
   d="m 384.723,245.963 c -0.243,6.079 -0.523,12.158 -0.851,18.238 H 342.4 c -5.034,0 -9.119,-4.085 -9.119,-9.119 0,-5.034 4.085,-9.119 9.119,-9.119 z"
   id="path22" />
		<path
   style="fill:#4d4d4d;stroke:url(#linearGradient29)"
   d="M 308.961,264.2 H 203.05 c -5.036,0 -9.119,-4.083 -9.119,-9.119 0,-5.036 4.083,-9.119 9.119,-9.119 h 105.911 c 5.036,0 9.119,4.083 9.119,9.119 0,5.036 -4.083,9.119 -9.119,9.119 z"
   id="path23" />
		<path
   style="fill:#4d4d4d;stroke:url(#linearGradient30)"
   d="m 178.725,290.548 c 0,5.034 -4.085,9.119 -9.119,9.119 h -39.174 c -0.462,-6.079 -0.888,-12.158 -1.277,-18.225 0.049,-0.012 0.109,-0.012 0.158,-0.012 h 40.293 c 5.033,-0.001 9.119,4.072 9.119,9.118 z"
   id="path24" />
		<path
   style="fill:#4d4d4d;stroke:url(#linearGradient31)"
   d="m 382.851,281.441 c -0.389,6.079 -0.815,12.158 -1.289,18.225 H 342.4 c -5.034,0 -9.119,-4.085 -9.119,-9.119 0,-5.046 4.085,-9.119 9.119,-9.119 h 40.281 c 0.061,10e-4 0.109,10e-4 0.17,0.013 z"
   id="path25" />
		<path
   style="fill:#4d4d4d;stroke:url(#linearGradient32)"
   d="M 308.961,299.662 H 203.05 c -5.036,0 -9.119,-4.083 -9.119,-9.119 0,-5.036 4.083,-9.119 9.119,-9.119 h 105.911 c 5.036,0 9.119,4.083 9.119,9.119 0,5.036 -4.083,9.119 -9.119,9.119 z"
   id="path26" />
		<path
   style="fill:#4d4d4d;stroke:url(#linearGradient33)"
   d="m 186.737,5.52 v 18.93 c 0,5.034 -4.085,9.119 -9.119,9.119 -5.034,0 -9.119,-4.085 -9.119,-9.119 V 7.21 c 3.635,-0.596 7.271,-1.167 10.906,-1.69 2.42,-0.353 4.839,-0.681 7.271,-0.985 0.049,0.328 0.061,0.657 0.061,0.985 z"
   id="path27" />
		<path
   style="fill:#4d4d4d;stroke:url(#linearGradient34)"
   d="M 225.923,1.386 V 24.45 c 0,5.034 -4.073,9.119 -9.119,9.119 -5.034,0 -9.119,-4.085 -9.119,-9.119 V 2.201 c 3.344,-0.304 6.675,-0.571 10.018,-0.815 2.736,-0.195 5.459,-0.377 8.195,-0.523 0.025,0.17 0.025,0.341 0.025,0.523 z"
   id="path28" />
		<path
   style="fill:#4d4d4d;stroke:url(#linearGradient35)"
   d="M 265.122,0.085 V 24.45 c 0,5.034 -4.085,9.119 -9.119,9.119 -5.034,0 -9.119,-4.085 -9.119,-9.119 V 0.085 C 249.924,0.024 252.963,0 256.003,0 c 3.04,0 6.079,0.024 9.119,0.085 z"
   id="path29" />
		<path
   style="fill:#4d4d4d;stroke:url(#linearGradient36)"
   d="m 304.32,2.201 v 22.25 c 0,5.034 -4.085,9.119 -9.119,9.119 -5.034,0 -9.119,-4.085 -9.119,-9.119 V 1.386 c 0,-0.182 0,-0.353 0.024,-0.523 2.736,0.146 5.459,0.328 8.195,0.523 3.344,0.243 6.676,0.511 10.019,0.815 z"
   id="path30" />
		<path
   style="fill:#4d4d4d;stroke:url(#linearGradient37)"
   d="m 343.507,7.21 v 17.24 c 0,5.034 -4.073,9.119 -9.119,9.119 -5.034,0 -9.119,-4.085 -9.119,-9.119 V 5.52 c 0,-0.328 0.012,-0.657 0.061,-0.985 2.432,0.304 4.851,0.632 7.271,0.985 3.635,0.523 7.27,1.094 10.906,1.69 z"
   id="path31" />
	</g></g></g></g></svg>
